<?xml version="1.0" encoding="utf-8"?>
<!-- Generator: Adobe Illustrator 19.0.1, SVG Export Plug-In . SVG Version: 6.00 Build 0)  -->
<svg version="1.1" xmlns="http://www.w3.org/2000/svg" xmlns:xlink="http://www.w3.org/1999/xlink" x="0px" y="0px"
	 viewBox="0 0 519.558 201.659" style="enable-background:new 0 0 519.558 201.659;" xml:space="preserve">
<style type="text/css">
	.st0{display:none;}
	.st1{display:inline;fill:#3D5295;}
	.st2{display:none;fill:#FFFFFF;}
	.st3{display:none;fill:#5C76B7;}
	.st4{display:none;fill:#C6C6C6;}
	.st5{display:none;fill:#B2B2B2;}
	.st6{display:none;fill:#868686;}
	.st7{fill:#FFFFFF;}
	.st8{fill:#F05736;}
	.st9{display:none;fill:#3D5295;}
	.st10{display:inline;}
	.st11{fill:#3D5295;}
	.st12{fill:#D8A398;}
	.st13{fill:#181364;}
	.st14{fill:#ABCDFF;}
	.st15{fill:#F0C0B2;}
	.st16{fill:#CF9166;}
	.st17{fill:#F48470;}
	.st18{fill:#342112;}
	.st19{fill:#B43128;}
	.st20{fill:#F05B4E;}
	.st21{fill:#F49B77;}
	.st22{fill:#7DA7EA;}
	.st23{fill:none;stroke:#949498;stroke-width:2;stroke-miterlimit:10;}
	.st24{fill:#F2F2F2;}
	.st25{fill:#E6E6E6;}
</style>
<g id="BACKGROUND" class="st0">
	<rect id="XMLID_1_" x="19.558" y="-139.341" class="st1" width="500" height="500"/>
</g>
<g id="OBJECTS">
	<g id="XMLID_300_" class="st0">
	</g>
	<rect id="XMLID_2_" x="89.589" y="-70.341" class="st2" width="359.937" height="354"/>
	<rect id="XMLID_611_" x="105.858" y="-6.341" class="st3" width="327.4" height="208"/>
	<rect id="XMLID_5_" x="155.558" y="-48.341" class="st4" width="87.089" height="7"/>
	<rect id="XMLID_22_" x="155.558" y="-32.414" class="st4" width="108.236" height="12.896"/>
	<rect id="XMLID_78_" x="105.858" y="-53.341" class="st5" width="33.7" height="33.82"/>
	<polygon id="XMLID_122_" class="st5" points="420.666,-43.766 412.635,-35.736 404.605,-43.766 395.807,-43.766 412.635,-26.938 
		429.464,-43.766 	"/>
	<path id="XMLID_26_" class="st6" d="M127.881-34.855c1.988-1.47,3.282-3.824,3.282-6.486c0-4.457-3.613-8.07-8.07-8.07
		s-8.07,3.613-8.07,8.07c0,2.662,1.295,5.017,3.283,6.487c-4.715,1.434-8.178,5.829-8.178,11.003v3.01c0,0.45,0.03,0.89,0.08,1.32
		h25.77c0.05-0.43,0.08-0.87,0.08-1.32v-3.01C136.058-29.026,132.601-33.422,127.881-34.855z"/>
	<g id="XMLID_136_">
		<circle id="XMLID_212_" class="st7" cx="381.558" cy="156.436" r="9"/>
		<path id="XMLID_82_" class="st8" d="M381.574,154.057c0,0-2.691-2.351-4.192,0.22c-1.58,2.707,2.707,6.081,4.192,7.17h-0.032
			c1.485-1.089,5.772-4.463,4.192-7.17c-1.501-2.571-4.192-0.22-4.192-0.22"/>
	</g>
	<g id="XMLID_221_">
		<circle id="XMLID_273_" class="st7" cx="387.073" cy="103.748" r="9"/>
		<path id="XMLID_261_" class="st8" d="M388.371,101.755c0,0-0.995-3.432-3.647-2.079c-2.792,1.425-1.006,6.58-0.344,8.298
			l-0.027-0.017c1.838-0.115,7.268-0.639,7.4-3.771c0.125-2.975-3.41-2.449-3.41-2.449"/>
	</g>
	<g id="XMLID_179_">
		<circle id="XMLID_301_" class="st7" cx="417.639" cy="73.259" r="9"/>
		<path id="XMLID_186_" class="st8" d="M416.629,71.105c0,0-3.441-0.964-3.689,2.003c-0.261,3.124,5.06,4.324,6.87,4.668
			l-0.029,0.014c0.872-1.622,3.29-6.513,0.698-8.276c-2.461-1.675-3.879,1.606-3.879,1.606"/>
	</g>
	<g id="XMLID_197_">
		<circle id="XMLID_350_" class="st7" cx="370.078" cy="31.944" r="9"/>
		<path id="XMLID_206_" class="st8" d="M370.837,29.689c0,0-1.82-3.075-4.05-1.103c-2.348,2.077,0.668,6.622,1.738,8.122l-0.03-0.01
			c1.752-0.57,6.879-2.433,6.225-5.499c-0.621-2.911-3.913-1.52-3.913-1.52"/>
	</g>
	<path id="XMLID_19_" class="st9" d="M269.648,258.143h-4.042l0,4.805l-8.124-4.805h-5.294c-2.11,0-3.836-1.726-3.836-3.836v-9.811
		c0-2.11,1.726-3.836,3.836-3.836h17.461c2.11,0,3.836,1.726,3.836,3.836v9.811C273.485,256.416,271.758,258.143,269.648,258.143z"
		/>
	<g id="XMLID_103_" class="st0">
		<g id="XMLID_83_" class="st10">
			<polygon id="XMLID_89_" class="st11" points="402.947,261.779 386.675,253.836 402.813,243.319 404.182,245.419 391.747,253.522 
				404.047,259.527 			"/>
		</g>
		<circle id="XMLID_85_" class="st1" cx="402.402" cy="244.635" r="3.236"/>
		<circle id="XMLID_114_" class="st1" cx="389.211" cy="253.49" r="3.236"/>
		<circle id="XMLID_106_" class="st1" cx="402.402" cy="259.963" r="3.236"/>
	</g>
	<g id="XMLID_171_">
		<path id="XMLID_170_" class="st12" d="M305.747,147.132c0.739-2.492,1.876-4.866,3.355-7.004c0.676-0.978,1.43-1.917,1.906-3.006
			c0.772-1.766,0.749-3.798,0.304-5.673c-0.445-1.875-1.286-3.629-2.121-5.366c-1.249-2.599-2.538-5.255-4.602-7.269
			c-1.241-1.211-2.739-2.157-4.366-2.756c-2.916-1.074-6.381-1.135-8.61-3.3c-1.704-1.655-3.132-3.507-6.175-4.975
			c-0.399-0.192-2.006-0.403-2.881,1.25c-0.819,1.547,2.657,6.475,3.75,7.875c4,5.125,5.891,13.315,6.146,14.647
			c0.368,1.92-0.514,5.807-0.146,7.728c0.4,2.087,2.137,2.37,3.738,3.767c0.637,0.556,1.408,0.933,2.181,1.278
			c2.303,1.029,4.709,1.83,7.169,2.387"/>
		<path id="XMLID_166_" class="st13" d="M181.295,29.554c15.962,1.234,16.509-15.915,40.253-12.015
			c26.384,4.334,37.822,17.571,44.369,49.609c3.8,18.591,8.641,111.258-10.932,123.177c-16.706,10.173-53.975,10.059-69.93,8.667
			c-34.479-3.008-41.66-26.53-37.68-72.132C150.229,94.151,159.277,27.851,181.295,29.554z"/>
		<g id="XMLID_190_">
			<g id="XMLID_10_">
				<g id="XMLID_18_">
					<g id="XMLID_23_">
						<g id="XMLID_27_">
							<path id="XMLID_204_" class="st14" d="M249.925,201.659h-49.97c0.01-12.13-0.01-24-0.09-32.07
								c-0.15-15.55,2.5-27.34,4.32-33.55l0.01-0.04c0.07-0.24,0.14-0.48,0.21-0.7c0.04-0.15,0.09-0.29,0.13-0.43v-0.01
								c0.17-0.53,0.32-1.01,0.46-1.43c0.5-1.5,0.83-2.29,0.83-2.29l14.61-0.72c0,0,1.3,1.23,3.39,3.86
								c0.47,0.59,0.99,1.26,1.54,2.01c0.14,0.19,0.28,0.38,0.42,0.58c0.05,0.07,0.1,0.14,0.16,0.21c0.24,0.34,0.49,0.7,0.75,1.07
								c0.97,1.38,2.01,2.97,3.1,4.75c4.17,6.82,9.09,16.63,13.33,29.86c2.52,7.84,4.79,16.88,6.52,27.22
								C249.745,200.549,249.835,201.109,249.925,201.659z"/>
							<g id="XMLID_71_">
								<g id="XMLID_162_">
									<path id="XMLID_165_" class="st15" d="M174.453,79.722c0,0-8.217-9.654-15.094-2.777
										c-6.878,6.877,4.239,26.669,17.751,21.315L174.453,79.722z"/>
									<path id="XMLID_164_" class="st16" d="M175.459,86.748l1.37,9.543c-11.773,2.646-19.263-13.582-13.904-16.11
										C167.258,78.136,172.988,83.695,175.459,86.748z"/>
									<path id="XMLID_163_" class="st16" d="M161.163,83.685c0,0,0.02-0.074,0.049-0.214c0.031-0.139,0.088-0.337,0.156-0.583
										c0.155-0.482,0.431-1.183,0.992-1.702c0.14-0.131,0.305-0.237,0.474-0.329c0.089-0.043,0.175-0.088,0.276-0.125
										l0.067-0.027l0.003-0.002c-0.05,0.023-0.011,0.006-0.02,0.01l0.009-0.004l0.027-0.007l0.044-0.013l0.186-0.058
										c0.133-0.048,0.235-0.066,0.335-0.086c0.098-0.022,0.207-0.04,0.331-0.053c0.113-0.015,0.232-0.027,0.347-0.028
										c0.122-0.007,0.241-0.017,0.365-0.005c0.976,0.026,2.023,0.362,3.03,0.846c0.51,0.235,0.999,0.522,1.483,0.813
										c0.477,0.297,0.947,0.605,1.393,0.917c0.893,0.63,1.706,1.267,2.411,1.816c1.405,1.138,2.34,1.897,2.34,1.897
										s-0.129-0.277-0.401-0.736c-0.278-0.456-0.695-1.096-1.266-1.81c-0.289-0.355-0.606-0.741-0.971-1.122
										c-0.364-0.384-0.765-0.777-1.202-1.159c-0.88-0.761-1.902-1.506-3.066-2.065c-0.586-0.274-1.198-0.509-1.84-0.658
										c-0.64-0.151-1.309-0.215-1.956-0.163c-0.161,0.009-0.319,0.032-0.481,0.059c-0.157,0.018-0.311,0.059-0.463,0.1
										c-0.149,0.035-0.302,0.086-0.456,0.146c-0.156,0.058-0.304,0.114-0.405,0.174l-0.177,0.092l-0.109,0.055l-0.099,0.061
										c-0.132,0.075-0.25,0.164-0.364,0.257c-0.221,0.192-0.411,0.399-0.559,0.616c-0.309,0.428-0.452,0.878-0.528,1.264
										c-0.082,0.385-0.078,0.722-0.069,0.991c0.011,0.269,0.05,0.482,0.074,0.622C161.148,83.612,161.163,83.685,161.163,83.685z
										"/>
								</g>
								<g id="XMLID_158_">
									<path id="XMLID_161_" class="st15" d="M246.567,75.81c0,0,7.122-10.484,14.702-4.39c7.585,6.091-1.329,26.97-15.342,23.109
										L246.567,75.81z"/>
									<path id="XMLID_160_" class="st16" d="M246.325,82.906l-0.328,9.633c11.987,1.36,17.678-15.582,12.076-17.516
										C253.548,73.459,248.45,79.603,246.325,82.906z"/>
									<path id="XMLID_159_" class="st16" d="M260.205,78.315c0,0-0.024-0.07-0.072-0.205c-0.046-0.137-0.121-0.326-0.218-0.564
										c-0.203-0.465-0.553-1.132-1.171-1.586c-0.149-0.113-0.321-0.201-0.507-0.275c-0.093-0.03-0.184-0.071-0.28-0.091
										l-0.076-0.02l-0.004-0.002c0.056,0.017,0.011,0.001,0.02,0.004l-0.009,0.001l-0.024-0.006l-0.046-0.01l-0.193-0.037
										c-0.134-0.033-0.241-0.038-0.342-0.048c-0.1-0.014-0.21-0.02-0.333-0.018c-0.116-0.003-0.231,0-0.35,0.01
										c-0.119,0.006-0.238,0.013-0.36,0.036c-0.967,0.128-1.976,0.575-2.924,1.166c-0.478,0.291-0.937,0.627-1.386,0.971
										c-0.442,0.347-0.876,0.702-1.285,1.064c-0.82,0.722-1.559,1.441-2.2,2.063c-1.273,1.284-2.121,2.139-2.121,2.139
										s0.1-0.292,0.323-0.775c0.22-0.482,0.568-1.167,1.062-1.939c0.247-0.382,0.522-0.801,0.844-1.218
										c0.32-0.421,0.673-0.853,1.068-1.282c0.79-0.85,1.726-1.701,2.823-2.385c0.549-0.334,1.14-0.634,1.761-0.852
										c0.619-0.219,1.274-0.356,1.923-0.374c0.164-0.009,0.325-0.001,0.485,0.008c0.161,0.001,0.315,0.021,0.474,0.049
										c0.15,0.018,0.306,0.051,0.468,0.096c0.16,0.039,0.313,0.08,0.424,0.131l0.181,0.067l0.115,0.045l0.105,0.049
										c0.139,0.06,0.27,0.138,0.393,0.217c0.237,0.167,0.448,0.35,0.623,0.55c0.352,0.394,0.54,0.826,0.658,1.197
										c0.123,0.375,0.156,0.711,0.176,0.981c0.019,0.271,0.002,0.484-0.007,0.626C260.212,78.239,260.205,78.315,260.205,78.315z
										"/>
								</g>
								<path id="XMLID_157_" class="st15" d="M203.58,109.248l19.522-1.061c0.088,1.052,2.71,34.106,2.483,30.525
									c0,0-1.103,6.174-9.757,6.78c-8.656,0.603-11.137-5.648-11.137-5.648C204.752,139.672,203.58,109.248,203.58,109.248z"/>
								<path id="XMLID_156_" class="st17" d="M203.702,119.597l20.288-1.894c0,0,0.883,14.291,0.956,14.287
									c0,0-0.872,5.401-9.526,6.007c-8.656,0.603-10.427-4.568-10.427-4.568C205.056,133.257,203.702,119.597,203.702,119.597z"/>
								<path id="XMLID_155_" class="st16" d="M203.885,114.868l19.523-1.061c0,0,0.459,3.891,0.864,7.202
									c0.061,0.479-5.503,1.631-6.106,1.761c-4.738,1.017-9.477,0.658-14.192-0.273
									C203.942,119.09,203.885,114.868,203.885,114.868z"/>
								<path id="XMLID_154_" class="st13" d="M164.146,72.198c1.319,24.343,23.514,42.937,49.57,41.525
									c26.056-1.413,46.108-22.297,44.788-46.644c-1.319-24.347-23.512-42.939-49.571-41.527
									C182.879,26.965,162.824,47.848,164.146,72.198z"/>
								<path id="XMLID_153_" class="st15" d="M169.13,71.327c-0.265-13.589,4.874-26.711,17.989-32.702
									c6.67-3.049,14.115-4.167,21.414-4.445c7.21-0.274,14.909-0.223,21.822,2.02c12.385,4.021,19.282,14.677,21.188,26.996
									c0.189,1.208,0.333,2.421,0.44,3.637c0.25,2.789,0.614,5.529,0.662,8.339c0.109,6.318-0.553,12.695-2.284,18.794
									c-2.101,7.399-5.899,14.364-11.689,19.614c-3.288,2.984-7.133,5.339-11.251,7.049c-6.8,2.818-13.357,3.983-20.679,3.041
									c-4.962-0.637-9.839-1.983-14.288-4.237c-7.38-3.735-13.089-9.851-16.838-17.079c-3.149-6.083-4.983-12.787-5.89-19.539
									c-0.497-3.696-0.773-7.465-0.612-11.192C169.121,71.524,169.132,71.426,169.13,71.327z"/>
								<path id="XMLID_152_" class="st16" d="M201.083,81.875c0.359,3.845-2.215,7.228-5.746,7.553
									c-3.533,0.328-6.689-2.527-7.05-6.373c-0.36-3.847,2.211-7.227,5.746-7.553C197.566,75.173,200.721,78.028,201.083,81.875z"
									/>
								<polygon id="XMLID_151_" class="st18" points="189.571,76.531 186.203,73.415 190.488,75.131 								"/>
								<polygon id="XMLID_150_" class="st18" points="189.224,77.752 185.055,75.785 189.669,76.144 								"/>
								<path id="XMLID_149_" d="M200.93,80.246c0.363,3.847-2.211,7.227-5.744,7.555c-3.535,0.328-6.69-2.525-7.05-6.372
									c-0.363-3.845,2.209-7.231,5.744-7.557C197.412,73.549,200.571,76.401,200.93,80.246z"/>
								<path id="XMLID_148_" class="st7" d="M198.558,78.564c0.131,1.393-0.914,2.628-2.329,2.758
									c-1.419,0.132-2.674-0.888-2.803-2.284c-0.131-1.391,0.914-2.626,2.329-2.756C197.171,76.147,198.427,77.171,198.558,78.564
									z"/>
								<path id="XMLID_147_" class="st16" d="M239.25,78.707c0.36,3.847-2.211,7.229-5.744,7.555
									c-3.535,0.328-6.691-2.529-7.05-6.372c-0.361-3.845,2.209-7.229,5.744-7.555C235.731,72.009,238.891,74.86,239.25,78.707z"
									/>
								<polygon id="XMLID_146_" class="st18" points="237.42,73.938 240.43,70.475 236.357,72.645 								"/>
								<polygon id="XMLID_145_" class="st18" points="237.895,75.114 241.828,72.707 237.28,73.563 								"/>
								<path id="XMLID_144_" d="M239.097,77.08c0.363,3.847-2.213,7.227-5.744,7.555c-3.535,0.326-6.69-2.525-7.05-6.374
									c-0.363-3.843,2.211-7.229,5.744-7.553C235.579,70.382,238.738,73.237,239.097,77.08z"/>
								<path id="XMLID_143_" class="st7" d="M236.725,75.4c0.129,1.391-0.911,2.627-2.329,2.758
									c-1.419,0.132-2.675-0.892-2.806-2.286c-0.129-1.391,0.913-2.628,2.333-2.758C235.338,72.983,236.594,74.005,236.725,75.4z"
									/>
								<path id="XMLID_142_" class="st17" d="M213.914,76.478c0,0-0.572,8.525,3.392,7.647c7.676-1.69,8.417,14.884-3.529,9.22
									c-4.511-2.135-3.683-16.587-3.683-16.587L213.914,76.478z"/>
								<path id="XMLID_141_" class="st19" d="M223.164,100.418c0,0-15.45,3.264-23.231-5.331c0,0-5.493,16.929,11.308,18.34
									C221.853,114.314,223.164,100.418,223.164,100.418z"/>
								<path id="XMLID_138_" class="st8" d="M218.329,111.153c-1.706,1.535-4.002,2.53-7.088,2.273
									c-3.812-0.321-6.472-1.441-8.315-2.978c-0.53-0.463-1.007-0.962-1.44-1.485c-0.012-0.01-0.022-0.023-0.03-0.035
									c-0.008-0.007-0.01-0.012-0.014-0.019c-1.35-1.745-1.99-3.788-2.236-5.756C208.488,100.289,215.538,107.337,218.329,111.153
									z"/>
								<path id="XMLID_135_" class="st7" d="M223.164,100.418L223.164,100.418c0,0-0.016,0.12-0.041,0.332
									c-1.501,0.379-4.161,3.792-7.942,3.823c-2.391,0.027-4.761-0.53-6.953-1.45c-1.363-0.568-2.764-1.112-3.958-1.987
									c-0.915-0.668-1.641-2.733-2.07-4.011C210.367,103.119,223.16,100.418,223.164,100.418z"/>
								<g id="XMLID_129_">
									<path id="XMLID_131_" class="st20" d="M223.725,99.799c-0.2-0.18-0.47-0.25-0.74-0.19c-0.15,0.03-15.06,3.05-22.42-5.08
										c-0.2-0.22-0.51-0.32-0.81-0.25c-0.3,0.06-0.54,0.27-0.63,0.56c-0.11,0.33-2.63,8.31,1.25,14.04
										c0.86,1.26,1.96,2.31,3.3,3.14c1.17,0.73,2.53,1.29,4.06,1.68c1.06,0.27,2.2,0.46,3.43,0.56c0.58,0.04,1.13,0.05,1.66,0.02
										c1.23-0.07,2.33-0.33,3.31-0.75c2.52-1.06,4.25-3.1,5.43-5.26c2.02-3.68,2.43-7.7,2.44-7.78
										C224.025,100.229,223.925,99.969,223.725,99.799z M222.165,101.439c-0.27,1.56-0.95,4.48-2.56,6.94
										c-0.49,0.77-1.08,1.49-1.78,2.11c-1.57,1.43-3.68,2.34-6.51,2.1c-3.25-0.27-5.83-1.16-7.71-2.68
										c-0.71-0.55-1.32-1.21-1.82-1.95c-1.05-1.54-1.56-3.32-1.75-5.04c-0.29-2.44,0.05-4.77,0.35-6.19
										c0.72,0.66,1.49,1.24,2.3,1.74c6.67,4.24,15.56,3.53,19.11,3.02C221.925,101.479,222.055,101.459,222.165,101.439z"/>
								</g>
								<g id="XMLID_126_">
									<path id="XMLID_128_" class="st21" d="M229.18,99.247c0.193,3.555,3.279,6.278,6.896,6.081
										c3.617-0.197,6.395-3.238,6.206-6.793c-0.197-3.555-3.285-6.277-6.902-6.082C231.763,92.651,228.987,95.69,229.18,99.247z"
										/>
									<path id="XMLID_127_" class="st21" d="M181.981,97.654c0.193,3.557,3.281,6.281,6.902,6.084
										c3.613-0.196,6.39-3.236,6.2-6.791c-0.197-3.555-3.283-6.277-6.898-6.083C184.566,91.061,181.788,94.102,181.981,97.654z"
										/>
								</g>
								<path id="XMLID_124_" d="M240.592,67.82c0,0-0.157-0.261-0.513-0.659c-0.181-0.192-0.4-0.443-0.683-0.68
									c-0.272-0.255-0.6-0.514-0.977-0.784c-0.372-0.268-0.796-0.537-1.256-0.791c-0.467-0.246-0.965-0.509-1.508-0.711
									c-0.53-0.232-1.103-0.404-1.692-0.57c-0.586-0.178-1.201-0.26-1.809-0.388c-0.613-0.069-1.231-0.135-1.837-0.168
									c-0.606-0.007-1.206,0.001-1.777,0.027c-0.577,0.059-1.129,0.131-1.648,0.205c-0.524,0.082-1.003,0.225-1.445,0.334
									c-0.439,0.121-0.843,0.224-1.189,0.375c-0.345,0.134-0.644,0.266-0.888,0.371c-0.482,0.212-0.751,0.358-0.751,0.358
									s0.314,0.031,0.839,0.044c0.263,0.008,0.581,0.02,0.942,0.017c0.353-0.014,0.76,0.016,1.202,0.03
									c0.436,0.022,0.903,0,1.396,0.034c0.495,0.032,1.009,0.061,1.542,0.076c0.531,0.048,1.072,0.107,1.63,0.141
									c0.547,0.069,1.101,0.138,1.66,0.212c0.278,0.047,0.554,0.097,0.826,0.142c0.278,0.049,0.553,0.08,0.819,0.148
									c0.269,0.062,0.538,0.116,0.803,0.167c0.269,0.048,0.517,0.133,0.777,0.191c0.516,0.115,1.003,0.265,1.477,0.395
									c0.238,0.059,0.456,0.15,0.676,0.213c0.222,0.071,0.438,0.131,0.639,0.209c0.407,0.137,0.785,0.269,1.113,0.396
									c0.34,0.121,0.624,0.245,0.872,0.338c0.229,0.107,0.431,0.175,0.554,0.238C240.523,67.791,240.592,67.82,240.592,67.82z"/>
								<path id="XMLID_121_" d="M184.885,72.297c0,0,0.128-0.277,0.439-0.712c0.163-0.209,0.348-0.483,0.599-0.752
									c0.247-0.279,0.549-0.575,0.886-0.885c0.341-0.305,0.734-0.614,1.169-0.918c0.441-0.296,0.904-0.611,1.423-0.868
									c0.502-0.29,1.054-0.523,1.618-0.752c0.563-0.24,1.166-0.388,1.756-0.58c0.604-0.137,1.206-0.269,1.808-0.366
									c0.603-0.075,1.201-0.129,1.775-0.166c0.576-0.004,1.133,0.008,1.658,0.026c0.522,0.025,1.016,0.115,1.468,0.175
									c0.452,0.071,0.864,0.133,1.221,0.242c0.359,0.098,0.671,0.197,0.922,0.274c0.51,0.16,0.789,0.275,0.789,0.275
									s-0.307,0.066-0.828,0.137c-0.26,0.036-0.575,0.083-0.935,0.119c-0.357,0.025-0.755,0.096-1.191,0.158
									c-0.43,0.069-0.897,0.1-1.388,0.185c-0.487,0.086-0.993,0.172-1.521,0.242c-0.522,0.107-1.059,0.225-1.607,0.315
									c-0.538,0.128-1.079,0.261-1.628,0.391c-0.269,0.077-0.537,0.154-0.806,0.231c-0.265,0.077-0.537,0.137-0.798,0.238
									c-0.258,0.091-0.519,0.173-0.777,0.252c-0.262,0.076-0.506,0.189-0.752,0.274c-0.503,0.171-0.969,0.372-1.427,0.555
									c-0.23,0.08-0.435,0.196-0.649,0.283c-0.213,0.092-0.423,0.177-0.613,0.274c-0.388,0.184-0.752,0.353-1.065,0.517
									c-0.324,0.157-0.594,0.311-0.823,0.43c-0.222,0.132-0.414,0.222-0.533,0.297C184.951,72.257,184.885,72.297,184.885,72.297z
									"/>
								<g id="XMLID_92_">
									<path id="XMLID_95_" class="st16" d="M168.451,71.799c0,0-0.958-5.203-1.277-11.99
										C167.595,66.71,168.451,71.799,168.451,71.799z"/>
								</g>
								<path id="XMLID_60_" class="st13" d="M187.371,41.746c0,0-7.786,20.408-19.347,27.066
									c-0.336-2.621-0.779-6.741-0.974-11.479c6.929-15.934,22.108-27.727,40.529-29.897l-0.004-0.077
									c0.242-0.002,0.477,0.001,0.723,0.001c0.233-0.026,0.474-0.055,0.711-0.077l0.004,0.077
									c18.548,0.161,34.914,10.245,43.524,25.336c0.301,4.496,0.321,8.465,0.28,11.116
									C221.833,69.125,187.371,41.746,187.371,41.746z"/>
							</g>
						</g>
						<path id="XMLID_189_" class="st22" d="M181.295,201.659c0.76-10.13,2.32-19.21,4.3-27.17c3.52-14.16,8.37-24.76,12.42-31.38
							c2.7-4.42,5.04-7.06,6.39-7.81c0.05-0.03,0.09-0.05,0.14-0.07v-0.01h0.01c0.11,0.1,0.23,1.95,0.35,5.05
							c0.45,11.42,0.93,39.88,1.22,61.39H181.295z"/>
						<path id="XMLID_130_" class="st22" d="M201.225,143.369l-1.9,3.4l-0.16,0.28c0,0-6.46,12.99-13.57,27.44
							c-4.69,9.54-9.67,19.71-13.26,27.17h-24.96c12.84-19.74,33.81-48.43,38.01-53.32c3.82-4.44,14.795-8.747,17.03-11.309
							c6.17-7.07-2.03,6.209-1.53,6.279C201.105,143.349,201.225,143.369,201.225,143.369z"/>
						<path id="XMLID_172_" class="st22" d="M269.255,201.659h-27.56c-2.63-14.99-5.6-29.92-9.53-44.65
							c-0.5-1.85-2.86-9.16-4.72-15.04c-0.4-1.29-0.78-2.51-1.1-3.58c-0.15-0.47-0.28-0.91-0.4-1.31c-0.18-0.59-0.33-1.11-0.46-1.55
							l-0.06-0.24c-0.09-0.31-0.16-0.56-0.2-0.76c0-0.01,0-0.01,0-0.02c-0.06-0.22-0.08-0.36-0.07-0.4l0.03-0.03
							c0.59-0.73,1.44-0.19,4.16,2.56c0.96,0.97,2.16,2.22,3.67,3.79c1.91,1.22,4.53,3.45,7.56,6.75
							C249.045,156.419,260.735,174.079,269.255,201.659z"/>
					</g>
				</g>
			</g>
			<path id="XMLID_86_" class="st22" d="M309.018,142.543c0,0-2.007,25.369-10.131,35.82c-8.124,10.452-40.47-10.642-40.47-10.642
				l-16.588-9.621l-16.706-24.096c0,0,9.64-5.288,20.252-0.175c8.646,4.166,25.357,17.859,37.576,20.328
				c3.383,0.684,8.816-16.567,8.816-16.567L309.018,142.543z"/>
			<rect id="XMLID_123_" x="366.124" y="156.724" class="st23" width="0" height="0"/>
		</g>
		<g id="XMLID_137_">
			<path id="XMLID_169_" class="st8" d="M360.34,118.35c0.305-3.162,0.559-6.318,0.657-9.493c0.09-2.939,0.104-5.885,0.046-8.835
				l-0.009-0.561c-0.102-4.477-0.37-8.956-0.799-13.418l-0.051-0.538c-0.451-4.58-1.072-9.139-1.851-13.65
				c-0.567-3.282-1.06-6.854-2.401-9.935c-0.99-2.277-3.413-2.244-5.483-1.575c-0.178,0.058-0.355,0.12-0.53,0.184l0.174,0.484
				c1.117,3.115,1.536,6.548,2.04,9.801c0.685,4.403,1.245,8.829,1.747,13.257c0.333,2.943,0.691,5.899,0.86,8.856
				c0.269,4.76,0.287,9.546,0.261,14.313c-0.03,5.386-0.048,10.857-0.741,16.21l-0.078,0.59c0.462,0.214,0.932,0.397,1.412,0.521
				c0.796,0.208,1.652,0.191,2.375-0.231C359.916,123.197,360.147,120.327,360.34,118.35z"/>
			<path id="XMLID_167_" class="st24" d="M354.261,123.451c0.693-5.354,0.71-10.824,0.741-16.21
				c0.026-4.767,0.008-9.553-0.261-14.313c-0.168-2.957-0.527-5.914-0.86-8.856c-0.502-4.428-1.062-8.854-1.747-13.257
				c-0.504-3.253-0.924-6.686-2.04-9.801l-0.174-0.484c-2.275,0.839-4.306,2.245-6.324,3.564
				c-10.031,6.551-20.402,13.083-32.016,16.419c-1.459,0.417-2.933,0.774-4.421,1.067l0.019,0.533
				c0.125,7.882,0.547,15.753,1.04,23.62l0.039,0.529c6.471,0.614,12.892,1.782,19.011,4.023c5.414,1.981,10.472,4.759,15.497,7.551
				c2.887,1.605,5.775,3.209,8.698,4.745c0.881,0.465,1.785,1.026,2.722,1.459L354.261,123.451z"/>
			<path id="XMLID_192_" class="st8" d="M308.216,105.733c-0.493-7.867-0.915-15.738-1.04-23.62l-0.019-0.533
				c-0.09,0.018-0.18,0.038-0.27,0.055c-4.833,0.038-9.665,0.148-14.494,0.339c-1.763,0.069-3.917-0.128-5.538,0.717
				c-1.626,0.846-1.966,2.731-2.249,4.382c-0.65,3.792-0.46,7.713,0.511,11.432c0.496,1.906,1.207,3.757,2.113,5.507
				c0.324,0.627,0.648,1.338,1.327,1.647c0.83,0.379,1.979,0.273,2.865,0.324c0.02,0.003,0.038,0.003,0.058,0.003l0.531,0.029
				c3.992,0.215,7.991,0.294,11.99,0.243l0.529-0.006c0.966-0.016,1.93-0.036,2.897-0.066c0.276,0.024,0.552,0.051,0.828,0.077
				L308.216,105.733z"/>
			<path id="XMLID_133_" class="st24" d="M308.897,121.645c-2.519-4.741-3.62-10.128-4.367-15.394L304,106.257
				c-3.999,0.051-7.997-0.029-11.99-0.243l-0.531-0.029c0.261,3.741,0.671,7.431,1.507,11.091c0.792,3.478,1.457,6.956,2.818,10.265
				c0.544,1.326,1.075,2.579,2.706,2.701c2.055,0.149,4.126-1.018,6.049-1.602c1.506-0.46,3.605-0.883,4.736-2.076
				C310.705,124.874,309.682,123.122,308.897,121.645z"/>
			<g id="XMLID_174_">
				<path id="XMLID_125_" class="st25" d="M295.417,111.624c0.506-2.75,5.565-3.386,8.864-3.506l0,0l0,0l0.526-0.028
					c-0.098-0.614-0.19-1.227-0.277-1.839L304,106.257c-3.999,0.051-7.997-0.029-11.99-0.243l-0.531-0.029
					c0.261,3.741,0.671,7.431,1.507,11.091c0.792,3.478,1.457,6.956,2.818,10.265c0.544,1.326,1.075,2.579,2.706,2.701
					c0.553,0.04,1.107-0.017,1.66-0.131l-0.195-0.54C298.218,124.537,294.853,114.687,295.417,111.624z"/>
			</g>
			<path id="XMLID_119_" class="st25" d="M285.439,99.628c0.466,1.51,1.064,2.98,1.791,4.384c0.324,0.627,0.648,1.338,1.327,1.647
				c0.83,0.379,1.979,0.273,2.865,0.324c0.02,0.003,0.038,0.003,0.058,0.003l0.531,0.029c3.992,0.215,7.991,0.294,11.99,0.243
				l0.529-0.006c0.966-0.016,1.93-0.036,2.897-0.066c0.276,0.024,0.552,0.051,0.828,0.077c6.471,0.614,12.892,1.782,19.011,4.023
				c5.414,1.981,10.472,4.759,15.497,7.551c2.887,1.605,5.775,3.209,8.698,4.745c0.881,0.465,1.785,1.026,2.722,1.459
				c0.462,0.214,0.932,0.397,1.412,0.521c0.796,0.208,1.652,0.191,2.375-0.231c1.947-1.133,2.178-4.003,2.371-5.98
				c0.141-1.462,0.27-2.923,0.379-4.385C340.135,98.923,299.361,99.088,285.439,99.628z"/>
		</g>
	</g>
	<path id="XMLID_139_" class="st15" d="M314.081,118.308l0.027-0.053c1.463-2.875-0.634-6.276-3.86-6.273
		c-3.498,0.003-6.997,0.782-10.15,2.299c-0.916,0.441-1.874,1.009-1.938,2.213c-0.043,0.802,0.358,1.574,0.966,2.097
		c1.106,0.952,2.595,1.099,4.01,1.22c-1.098,0.348-2.098,0.976-2.911,1.791c-1.802,1.806-0.472,4.862,2.079,4.804
		c0.122-0.003,0.245-0.009,0.367-0.02c-0.456,0.155-0.89,0.368-1.294,0.63c-2.211,1.433-1.446,4.881,1.159,5.276
		c0.849,0.128,1.717,0.129,2.564-0.009c-0.013,0.004-0.026,0.009-0.038,0.013c-1.976,0.687-1.535,3.679,0.547,3.885
		c2.911,0.288,6.085-0.917,8.879-2.133c1.456-0.634,3.035-1.386,3.681-2.837c0.369-0.828,0.158-1.892-0.379-2.584
		c-0.639-0.823-0.743-1.975-0.327-2.931c0.03-0.068,0.053-0.22,0.072-0.411c0.088-0.876-0.288-1.734-0.988-2.268
		c-0.337-0.257-0.591-0.579-0.485-0.935c0.266-0.895,0.262-1.861-0.344-2.571C314.936,118.595,314.081,118.308,314.081,118.308z"/>
	<g id="XMLID_6_" class="st0">
		<g id="XMLID_499_" class="st10">
			<g id="XMLID_502_">
				<g id="XMLID_525_">
					<path id="XMLID_532_" class="st11" d="M132.155,260.934c-0.255,0-0.511-0.06-0.739-0.175l-1.858-0.929
						c-0.563-0.281-0.913-0.848-0.913-1.478v-9.511c0-0.51,0.241-0.999,0.645-1.31l1.13-0.868c0.009-0.007,0.017-0.014,0.024-0.022
						c0.346-0.407,3.406-4.046,4.055-6.242c0.001-0.003,0.004-0.015,0.004-0.039v-3.742c0-0.619,0.297-1.214,0.794-1.59
						c0.62-0.468,1.324-0.716,2.036-0.716c0.549,0,1.1,0.145,1.637,0.431c0.257,0.137,0.473,0.338,0.625,0.582
						c0.334,0.536,1.158,1.981,1.606,3.834c0.137,0.566,0.156,1.144,0.057,1.718l-0.636,3.684h6.903
						c1.245,0,2.341,0.871,2.606,2.071c0.055,0.251,0.083,0.52,0.083,0.801c0,0.96-0.379,1.776-1.056,2.316
						c0.243,0.362,0.442,0.847,0.442,1.464c0,0.868-0.461,1.536-0.857,1.949c0.179,0.327,0.337,0.78,0.337,1.357
						c0,0.918-0.515,1.686-1.055,2.163c0.161,0.362,0.299,0.854,0.299,1.475c0,1.636-1.563,2.777-2.966,2.777H132.155z"/>
					<g id="XMLID_526_">
						<g id="XMLID_528_">
							<path id="XMLID_529_" class="st7" d="M137.332,235.058c0.388,0,0.82,0.095,1.287,0.344c0.14,0.074,0.259,0.184,0.343,0.318
								c0.303,0.487,1.089,1.859,1.514,3.615c0.112,0.464,0.128,0.946,0.047,1.416l-0.755,4.373
								c-0.016,0.096,0.057,0.183,0.154,0.183h7.602c0.895,0,1.685,0.612,1.878,1.486c0.042,0.189,0.066,0.402,0.066,0.64
								c0,1.183-0.677,1.73-1.139,1.966c-0.165,0.084-0.198,0.307-0.065,0.437c0.268,0.262,0.59,0.715,0.59,1.377
								c0,0.857-0.647,1.471-0.964,1.72c-0.084,0.066-0.095,0.186-0.025,0.266c0.182,0.207,0.469,0.643,0.469,1.322
								c0,0.812-0.601,1.497-1.052,1.797c-0.131,0.087-0.163,0.262-0.081,0.396c0.165,0.269,0.377,0.751,0.377,1.445
								c0,1.134-1.134,2.031-2.22,2.031h-13.203c-0.141,0-0.28-0.033-0.405-0.096l-1.859-0.929
								c-0.307-0.154-0.501-0.468-0.501-0.811v-9.511c0-0.282,0.131-0.547,0.354-0.719l1.13-0.868
								c0.05-0.039,0.096-0.082,0.137-0.13c0.473-0.557,3.518-4.195,4.203-6.514c0.024-0.081,0.034-0.166,0.034-0.251v-3.741
								c0-0.392,0.186-0.759,0.499-0.996C136.108,235.349,136.653,235.058,137.332,235.058 M137.332,233.567L137.332,233.567
								c-0.876,0-1.735,0.3-2.485,0.867c-0.683,0.516-1.09,1.333-1.09,2.185v3.656c-0.534,1.655-2.634,4.41-3.841,5.836
								l-1.081,0.831c-0.586,0.451-0.936,1.161-0.936,1.901v9.511c0,0.914,0.508,1.735,1.325,2.144l1.859,0.929
								c0.331,0.166,0.702,0.253,1.072,0.253h13.203c1.977,0,3.711-1.646,3.711-3.522c0-0.496-0.075-0.926-0.183-1.289
								c0.518-0.591,0.939-1.404,0.939-2.349c0-0.476-0.087-0.887-0.211-1.23c0.472-0.628,0.73-1.348,0.73-2.077
								c0-0.458-0.091-0.902-0.265-1.314c0.569-0.649,0.879-1.501,0.879-2.466c0-0.335-0.034-0.658-0.101-0.961
								c-0.34-1.538-1.742-2.655-3.333-2.655h-6.018l0.486-2.812c0.117-0.675,0.094-1.354-0.067-2.02
								c-0.473-1.958-1.345-3.487-1.697-4.053c-0.221-0.355-0.535-0.648-0.908-0.846
								C138.673,233.742,138.004,233.567,137.332,233.567L137.332,233.567z"/>
						</g>
					</g>
				</g>
				<g id="XMLID_503_">
					<path id="XMLID_523_" class="st11" d="M121.312,261.233c-0.924,0-1.675-0.751-1.675-1.675v-11.793
						c0-0.924,0.752-1.675,1.675-1.675h7.147c0.924,0,1.675,0.751,1.675,1.675v11.793c0,0.924-0.752,1.675-1.675,1.675H121.312z"/>
					<g id="XMLID_505_">
						<g id="XMLID_506_">
							<path id="XMLID_511_" class="st7" d="M128.46,246.835c0.514,0,0.93,0.416,0.93,0.93v11.793c0,0.514-0.416,0.93-0.93,0.93
								h-7.147c-0.514,0-0.93-0.416-0.93-0.93v-11.793c0-0.514,0.416-0.93,0.93-0.93H128.46 M128.46,245.344h-7.147
								c-1.335,0-2.421,1.086-2.421,2.42v11.793c0,1.335,1.086,2.421,2.421,2.421h7.147c1.335,0,2.421-1.086,2.421-2.421v-11.793
								C130.88,246.43,129.794,245.344,128.46,245.344L128.46,245.344z"/>
						</g>
					</g>
				</g>
			</g>
		</g>
	</g>
	<g id="XMLID_177_">
		<g id="XMLID_381_">
			<path id="XMLID_386_" class="st7" d="M405.692,136.532c0.002,0.026-0.003,0.05-0.002,0.075l0.716,0.289
				c0.103,0.041,0.213,0.058,0.324,0.05l10.345-0.828c0.851-0.068,1.684-0.843,1.612-1.731c-0.044-0.544-0.24-0.908-0.386-1.108
				c-0.073-0.1-0.059-0.239,0.038-0.315c0.335-0.263,0.763-0.838,0.712-1.474c-0.043-0.532-0.295-0.855-0.451-1.006
				c-0.06-0.058-0.058-0.153,0.003-0.21c0.232-0.215,0.701-0.737,0.647-1.408c-0.042-0.519-0.322-0.853-0.549-1.042
				c-0.112-0.093-0.1-0.27,0.024-0.347c0.347-0.213,0.843-0.685,0.769-1.612c-0.015-0.187-0.047-0.352-0.092-0.497
				c-0.206-0.673-0.863-1.103-1.565-1.047l-5.957,0.477c-0.076,0.006-0.139-0.058-0.133-0.134l0.318-3.474
				c0.034-0.373-0.009-0.75-0.125-1.107c-0.443-1.349-1.145-2.375-1.413-2.738c-0.074-0.1-0.174-0.178-0.289-0.228
				c-0.381-0.165-0.726-0.213-1.03-0.189c-0.532,0.043-0.941,0.305-1.207,0.542c-0.23,0.205-0.353,0.504-0.328,0.812l0.235,2.931
				c0.005,0.067,0.003,0.133-0.011,0.199c-0.391,1.86-2.548,4.901-2.885,5.367c-0.029,0.041-0.062,0.077-0.099,0.111l-0.031,0.028
				c0.034,0.119,0.058,0.243,0.068,0.372L405.692,136.532z"/>
			<path id="XMLID_384_" class="st7" d="M403.281,135.774l-0.597-7.452c-0.046-0.579,0.183-1.158,0.614-1.548l0.012-0.011
				c-0.098-0.037-0.202-0.058-0.313-0.049l-5.6,0.448c-0.402,0.032-0.703,0.385-0.67,0.787l0.74,9.24
				c0.032,0.402,0.385,0.703,0.787,0.67l5.6-0.448c0.149-0.012,0.276-0.078,0.385-0.165
				C403.699,136.942,403.332,136.406,403.281,135.774z"/>
			<path id="XMLID_383_" class="st7" d="M403.865,135.728l-0.597-7.452c-0.032-0.399,0.126-0.798,0.424-1.067l0.034-0.03
				c-0.076-0.192-0.224-0.343-0.414-0.415l-0.012,0.011c-0.431,0.39-0.661,0.968-0.614,1.548l0.597,7.452
				c0.051,0.632,0.418,1.168,0.958,1.473c0.157-0.124,0.257-0.304,0.272-0.513C404.147,136.523,403.899,136.158,403.865,135.728z"/>
			<path id="XMLID_382_" class="st7" d="M403.785,127.385c-0.006-0.075-0.033-0.141-0.059-0.207l-0.034,0.03
				c-0.297,0.269-0.456,0.667-0.424,1.067l0.597,7.452c0.034,0.43,0.282,0.796,0.646,1.008c0.003-0.037,0.016-0.071,0.013-0.11
				l-0.076-0.944l-0.597-7.452L403.785,127.385z"/>
		</g>
	</g>
	<g id="XMLID_270_">
		<g id="XMLID_546_">
			<path id="XMLID_550_" class="st7" d="M344.248,25.844c0.016,0.02,0.026,0.043,0.041,0.063l0.756-0.159
				c0.108-0.023,0.21-0.07,0.296-0.139l8.129-6.452c0.669-0.531,0.928-1.638,0.374-2.336c-0.339-0.427-0.705-0.62-0.938-0.705
				c-0.116-0.042-0.182-0.166-0.144-0.283c0.131-0.405,0.167-1.121-0.23-1.621c-0.332-0.418-0.722-0.546-0.935-0.585
				c-0.082-0.015-0.134-0.095-0.115-0.176c0.073-0.308,0.172-1.002-0.247-1.53c-0.323-0.407-0.743-0.529-1.036-0.559
				c-0.145-0.015-0.234-0.168-0.173-0.301c0.169-0.371,0.319-1.038-0.259-1.767c-0.116-0.147-0.235-0.266-0.353-0.362
				c-0.546-0.444-1.331-0.435-1.883,0.003l-4.681,3.715c-0.06,0.047-0.148,0.03-0.185-0.037l-1.672-3.061
				c-0.18-0.329-0.425-0.618-0.721-0.849c-1.12-0.874-2.274-1.334-2.699-1.486c-0.117-0.042-0.244-0.051-0.367-0.028
				c-0.409,0.075-0.721,0.228-0.961,0.418c-0.418,0.332-0.611,0.777-0.7,1.123c-0.077,0.299-0.012,0.615,0.18,0.857l1.828,2.303
				c0.042,0.052,0.076,0.109,0.101,0.171c0.711,1.762,0.615,5.49,0.595,6.064c-0.002,0.05-0.009,0.099-0.021,0.147l-0.01,0.04
				c0.095,0.08,0.184,0.17,0.264,0.271L344.248,25.844z"/>
			<path id="XMLID_549_" class="st7" d="M341.823,26.559l-4.648-5.856c-0.361-0.455-0.493-1.064-0.352-1.628l0.004-0.016
				c-0.102,0.024-0.2,0.065-0.287,0.134l-4.4,3.493c-0.316,0.251-0.369,0.711-0.118,1.027l5.763,7.261
				c0.251,0.316,0.711,0.369,1.027,0.118l4.4-3.493c0.117-0.093,0.185-0.219,0.228-0.351
				C342.821,27.296,342.217,27.055,341.823,26.559z"/>
			<path id="XMLID_548_" class="st7" d="M342.282,26.194l-4.648-5.856c-0.249-0.314-0.34-0.733-0.243-1.122l0.011-0.044
				c-0.171-0.117-0.377-0.16-0.576-0.114l-0.004,0.016c-0.141,0.564-0.009,1.172,0.352,1.628l4.648,5.856
				c0.394,0.496,0.998,0.737,1.617,0.69c0.062-0.191,0.044-0.396-0.06-0.577C342.959,26.698,342.55,26.532,342.282,26.194z"/>
			<path id="XMLID_547_" class="st7" d="M337.567,19.311c-0.047-0.059-0.106-0.098-0.164-0.139l-0.011,0.044
				c-0.097,0.389-0.006,0.808,0.243,1.122l4.648,5.856c0.268,0.338,0.677,0.503,1.098,0.476c-0.018-0.032-0.026-0.068-0.05-0.098
				l-0.589-0.742l-4.648-5.856L337.567,19.311z"/>
		</g>
	</g>
	<g id="XMLID_230_" class="st0">
		<g id="XMLID_389_" class="st10">
			<path id="XMLID_394_" class="st7" d="M385.356,61.138c-0.008,0.024-0.021,0.045-0.03,0.069l0.554,0.539
				c0.079,0.077,0.175,0.135,0.281,0.168l9.89,3.147c0.814,0.259,1.877-0.143,2.147-0.993c0.165-0.52,0.121-0.931,0.062-1.172
				c-0.03-0.12,0.036-0.243,0.155-0.277c0.41-0.117,1.023-0.487,1.217-1.095c0.162-0.508,0.05-0.903-0.036-1.102
				c-0.033-0.077,0.004-0.164,0.082-0.193c0.296-0.111,0.928-0.417,1.132-1.058c0.158-0.496,0.024-0.911-0.114-1.172
				c-0.069-0.129,0.009-0.288,0.153-0.312c0.402-0.066,1.039-0.315,1.321-1.201c0.057-0.178,0.089-0.343,0.103-0.495
				c0.064-0.701-0.382-1.348-1.053-1.561l-5.694-1.812c-0.073-0.023-0.107-0.106-0.072-0.174l1.608-3.095
				c0.173-0.333,0.276-0.698,0.302-1.072c0.101-1.417-0.161-2.631-0.272-3.069c-0.031-0.121-0.094-0.231-0.181-0.32
				c-0.29-0.297-0.591-0.472-0.882-0.564c-0.509-0.162-0.986-0.073-1.323,0.045c-0.291,0.103-0.517,0.333-0.611,0.627l-0.892,2.802
				c-0.02,0.064-0.048,0.124-0.085,0.18c-1.066,1.573-4.213,3.573-4.7,3.877c-0.042,0.026-0.087,0.048-0.134,0.065l-0.039,0.014
				c-0.014,0.123-0.039,0.247-0.078,0.37L385.356,61.138z"/>
			<path id="XMLID_392_" class="st7" d="M383.41,59.525l2.267-7.124c0.176-0.554,0.608-1.003,1.154-1.201l0.015-0.006
				c-0.076-0.071-0.165-0.13-0.272-0.164l-5.354-1.703c-0.385-0.122-0.796,0.09-0.918,0.475l-2.811,8.834
				c-0.122,0.385,0.09,0.796,0.475,0.918l5.354,1.703c0.143,0.045,0.285,0.032,0.419-0.007
				C383.355,60.764,383.218,60.129,383.41,59.525z"/>
			<path id="XMLID_391_" class="st7" d="M383.968,59.702l2.267-7.124c0.121-0.382,0.419-0.691,0.796-0.827l0.043-0.015
				c0.002-0.207-0.077-0.402-0.227-0.541l-0.015,0.006c-0.547,0.198-0.978,0.647-1.154,1.201l-2.267,7.124
				c-0.192,0.604-0.055,1.239,0.33,1.726c0.193-0.055,0.353-0.185,0.446-0.372C383.928,60.545,383.837,60.114,383.968,59.702z"/>
			<path id="XMLID_390_" class="st7" d="M387.05,51.949c0.023-0.071,0.023-0.143,0.023-0.214l-0.043,0.015
				c-0.377,0.136-0.674,0.445-0.796,0.827l-2.267,7.124c-0.131,0.411-0.04,0.843,0.217,1.177c0.017-0.033,0.042-0.06,0.054-0.097
				l0.287-0.903l2.267-7.124L387.05,51.949z"/>
		</g>
	</g>
	<g id="XMLID_269_">
		<g id="XMLID_638_">
			<path id="XMLID_658_" class="st7" d="M403.093,27.262c0.004,0.025,0.002,0.05,0.006,0.075l0.741,0.218
				c0.106,0.031,0.218,0.037,0.327,0.018l10.216-1.828c0.841-0.151,1.594-1.002,1.437-1.879c-0.096-0.537-0.327-0.88-0.492-1.066
				c-0.082-0.092-0.082-0.232,0.008-0.317c0.308-0.295,0.678-0.908,0.565-1.536c-0.094-0.525-0.377-0.822-0.546-0.958
				c-0.065-0.052-0.073-0.147-0.017-0.209c0.21-0.236,0.626-0.801,0.508-1.464c-0.092-0.512-0.404-0.818-0.647-0.983
				c-0.121-0.082-0.126-0.259-0.01-0.347c0.325-0.246,0.773-0.763,0.609-1.679c-0.033-0.184-0.081-0.345-0.14-0.486
				c-0.27-0.649-0.966-1.014-1.659-0.89l-5.882,1.053c-0.075,0.013-0.144-0.044-0.145-0.12l-0.021-3.488
				c-0.002-0.375-0.081-0.746-0.232-1.089c-0.572-1.3-1.37-2.253-1.672-2.588c-0.083-0.093-0.191-0.161-0.309-0.199
				c-0.396-0.128-0.743-0.141-1.044-0.088c-0.525,0.094-0.907,0.395-1.149,0.657c-0.209,0.226-0.302,0.536-0.248,0.84l0.518,2.895
				c0.012,0.066,0.016,0.132,0.008,0.199c-0.209,1.889-2.061,5.125-2.35,5.622c-0.025,0.043-0.054,0.083-0.088,0.12l-0.028,0.031
				c0.046,0.115,0.081,0.237,0.104,0.363L403.093,27.262z"/>
			<path id="XMLID_657_" class="st7" d="M400.62,26.743l-1.317-7.359c-0.102-0.572,0.07-1.17,0.461-1.6l0.011-0.012
				c-0.101-0.027-0.207-0.038-0.317-0.018l-5.53,0.99c-0.397,0.071-0.662,0.451-0.591,0.848l1.633,9.125
				c0.071,0.397,0.451,0.662,0.848,0.591l5.53-0.99c0.147-0.026,0.267-0.105,0.367-0.201
				C401.149,27.864,400.731,27.367,400.62,26.743z"/>
			<path id="XMLID_655_" class="st7" d="M401.196,26.639l-1.317-7.359c-0.071-0.394,0.048-0.807,0.318-1.103l0.031-0.034
				c-0.095-0.184-0.256-0.32-0.453-0.373l-0.011,0.012c-0.391,0.43-0.564,1.028-0.461,1.6l1.317,7.359
				c0.112,0.624,0.529,1.122,1.097,1.374c0.145-0.139,0.226-0.328,0.221-0.537C401.554,27.404,401.272,27.064,401.196,26.639z"/>
			<path id="XMLID_654_" class="st7" d="M400.307,18.344c-0.013-0.074-0.046-0.137-0.079-0.2l-0.031,0.034
				c-0.27,0.296-0.389,0.708-0.318,1.103l1.317,7.359c0.076,0.425,0.358,0.764,0.741,0.94c-0.001-0.037,0.009-0.073,0.003-0.111
				l-0.167-0.933l-1.317-7.359L400.307,18.344z"/>
		</g>
	</g>
	<g id="XMLID_263_">
		<g id="XMLID_395_">
			<path id="XMLID_473_" class="st7" d="M357.036,184.789c0.011,0.023,0.015,0.048,0.025,0.071l0.772,0.021
				c0.111,0.003,0.22-0.02,0.321-0.066l9.405-4.387c0.774-0.361,1.284-1.377,0.907-2.185c-0.231-0.494-0.542-0.767-0.749-0.904
				c-0.103-0.068-0.138-0.203-0.074-0.309c0.222-0.364,0.422-1.052,0.152-1.63c-0.226-0.484-0.575-0.698-0.773-0.786
				c-0.076-0.034-0.108-0.123-0.07-0.197c0.143-0.283,0.4-0.935,0.115-1.545c-0.22-0.471-0.6-0.687-0.878-0.785
				c-0.138-0.048-0.189-0.218-0.099-0.333c0.251-0.321,0.551-0.936,0.158-1.779c-0.079-0.17-0.167-0.313-0.26-0.434
				c-0.428-0.558-1.194-0.732-1.832-0.435l-5.415,2.526c-0.069,0.032-0.151-0.006-0.171-0.079l-0.915-3.366
				c-0.098-0.362-0.27-0.7-0.504-0.993c-0.886-1.11-1.901-1.826-2.28-2.072c-0.104-0.068-0.225-0.106-0.35-0.113
				c-0.415-0.022-0.755,0.054-1.031,0.183c-0.484,0.226-0.775,0.614-0.942,0.93c-0.144,0.273-0.155,0.596-0.024,0.875l1.243,2.665
				c0.028,0.061,0.049,0.124,0.059,0.19c0.282,1.879-0.677,5.483-0.829,6.037c-0.013,0.048-0.031,0.094-0.054,0.138l-0.019,0.037
				c0.074,0.1,0.139,0.208,0.193,0.325L357.036,184.789z"/>
			<path id="XMLID_400_" class="st7" d="M354.512,184.921l-3.161-6.775c-0.246-0.527-0.232-1.149,0.035-1.665l0.008-0.014
				c-0.104,0-0.21,0.017-0.311,0.064l-5.091,2.375c-0.366,0.171-0.524,0.606-0.353,0.972l3.919,8.401
				c0.171,0.366,0.606,0.524,0.971,0.354l5.091-2.375c0.136-0.063,0.231-0.17,0.304-0.289
				C355.311,185.869,354.78,185.495,354.512,184.921z"/>
			<path id="XMLID_399_" class="st7" d="M355.043,184.673l-3.16-6.775c-0.169-0.363-0.16-0.792,0.024-1.147l0.021-0.04
				c-0.139-0.154-0.329-0.243-0.533-0.244l-0.008,0.014c-0.268,0.516-0.281,1.138-0.035,1.665l3.161,6.775
				c0.268,0.574,0.799,0.949,1.412,1.046c0.104-0.171,0.134-0.375,0.076-0.576C355.585,185.32,355.225,185.064,355.043,184.673z"/>
			<path id="XMLID_397_" class="st7" d="M352.056,176.883c-0.032-0.068-0.08-0.12-0.128-0.173l-0.021,0.04
				c-0.185,0.355-0.194,0.784-0.024,1.147l3.16,6.775c0.182,0.391,0.542,0.647,0.957,0.718c-0.01-0.036-0.01-0.073-0.026-0.107
				l-0.401-0.859l-3.161-6.775L352.056,176.883z"/>
		</g>
	</g>
</g>
<g id="DESIGNED_BY_FREEPIK" class="st0">
	<g id="XMLID_405_">
		<g id="XMLID_981_" class="st10">
			<g id="XMLID_1018_">
				<path id="XMLID_1043_" class="st7" d="M196.675,337.142v-0.17c-0.228,0.262-0.452,0.474-0.673,0.636
					c-0.221,0.164-0.462,0.289-0.72,0.373c-0.259,0.087-0.541,0.127-0.847,0.127c-0.406,0-0.781-0.084-1.128-0.256
					c-0.345-0.171-0.645-0.418-0.896-0.736c-0.253-0.318-0.444-0.691-0.575-1.124c-0.13-0.43-0.195-0.896-0.195-1.397
					c0-1.058,0.259-1.885,0.776-2.477c0.518-0.591,1.198-0.887,2.043-0.887c0.487,0,0.9,0.084,1.234,0.251
					c0.337,0.166,0.662,0.426,0.981,0.772v-2.502c0-0.348,0.069-0.609,0.209-0.787c0.138-0.178,0.336-0.267,0.592-0.267
					c0.257,0,0.454,0.082,0.593,0.245c0.138,0.164,0.208,0.404,0.208,0.723v7.476c0,0.321-0.075,0.564-0.224,0.725
					c-0.149,0.161-0.341,0.241-0.578,0.241c-0.232,0-0.424-0.082-0.574-0.25C196.751,337.691,196.675,337.451,196.675,337.142z
					 M193.342,334.651c0,0.461,0.072,0.851,0.215,1.173c0.142,0.323,0.338,0.566,0.585,0.729c0.249,0.163,0.52,0.247,0.813,0.247
					c0.298,0,0.57-0.078,0.816-0.234c0.246-0.154,0.444-0.393,0.59-0.713c0.147-0.32,0.221-0.723,0.221-1.202
					c0-0.451-0.074-0.839-0.221-1.166c-0.146-0.322-0.345-0.571-0.596-0.743c-0.25-0.171-0.524-0.257-0.822-0.257
					c-0.309,0-0.587,0.088-0.832,0.262c-0.244,0.178-0.434,0.429-0.567,0.759C193.409,333.836,193.342,334.216,193.342,334.651z"/>
				<path id="XMLID_1040_" class="st7" d="M204.149,335.081h-3.315c0.004,0.384,0.081,0.724,0.234,1.018
					c0.15,0.294,0.352,0.516,0.601,0.664c0.251,0.149,0.527,0.223,0.829,0.223c0.203,0,0.387-0.022,0.555-0.069
					c0.169-0.05,0.33-0.123,0.488-0.225c0.158-0.101,0.302-0.21,0.435-0.327c0.132-0.115,0.304-0.274,0.515-0.472
					c0.086-0.073,0.21-0.111,0.373-0.111c0.174,0,0.314,0.047,0.421,0.144c0.107,0.096,0.162,0.228,0.162,0.403
					c0,0.153-0.06,0.331-0.18,0.536c-0.121,0.205-0.302,0.401-0.544,0.591c-0.243,0.188-0.546,0.344-0.913,0.468
					c-0.365,0.125-0.787,0.186-1.263,0.186c-1.088,0-1.935-0.31-2.539-0.93c-0.605-0.621-0.907-1.463-0.907-2.527
					c0-0.501,0.075-0.965,0.224-1.394c0.149-0.428,0.366-0.794,0.651-1.102c0.286-0.306,0.638-0.541,1.056-0.705
					c0.418-0.163,0.881-0.245,1.391-0.245c0.661,0,1.23,0.14,1.704,0.419c0.474,0.28,0.829,0.641,1.065,1.083
					c0.236,0.443,0.354,0.895,0.354,1.354c0,0.428-0.123,0.702-0.366,0.829C204.937,335.016,204.592,335.081,204.149,335.081z
					 M200.834,334.119h3.074c-0.041-0.58-0.199-1.015-0.469-1.301c-0.272-0.289-0.629-0.432-1.07-0.432
					c-0.423,0-0.77,0.146-1.04,0.436C201.057,333.116,200.892,333.545,200.834,334.119z"/>
				<path id="XMLID_1038_" class="st7" d="M211.871,335.892c0,0.468-0.113,0.868-0.341,1.202c-0.227,0.333-0.563,0.587-1.009,0.758
					c-0.444,0.172-0.985,0.256-1.623,0.256c-0.608,0-1.13-0.093-1.564-0.278c-0.435-0.186-0.756-0.419-0.963-0.697
					c-0.207-0.281-0.31-0.561-0.31-0.843c0-0.188,0.066-0.345,0.199-0.479c0.132-0.132,0.299-0.196,0.503-0.196
					c0.177,0,0.314,0.042,0.409,0.129c0.095,0.088,0.186,0.209,0.273,0.366c0.174,0.304,0.382,0.526,0.624,0.678
					c0.242,0.148,0.571,0.223,0.99,0.223c0.339,0,0.618-0.076,0.835-0.226c0.216-0.153,0.325-0.325,0.325-0.52
					c0-0.298-0.112-0.514-0.338-0.65c-0.227-0.138-0.597-0.269-1.115-0.393c-0.584-0.144-1.059-0.297-1.425-0.457
					c-0.367-0.157-0.659-0.369-0.878-0.629c-0.219-0.261-0.329-0.583-0.329-0.963c0-0.338,0.101-0.659,0.303-0.962
					c0.204-0.302,0.502-0.543,0.899-0.724c0.394-0.18,0.871-0.27,1.43-0.27c0.439,0,0.833,0.047,1.182,0.139
					c0.351,0.089,0.643,0.213,0.876,0.366c0.234,0.152,0.412,0.321,0.533,0.508c0.122,0.186,0.183,0.367,0.183,0.546
					c0,0.194-0.065,0.353-0.195,0.479c-0.13,0.122-0.316,0.185-0.556,0.185c-0.174,0-0.322-0.05-0.443-0.149
					c-0.122-0.1-0.262-0.249-0.419-0.446c-0.128-0.165-0.279-0.299-0.453-0.398c-0.174-0.099-0.41-0.147-0.708-0.147
					c-0.306,0-0.561,0.063-0.764,0.194c-0.202,0.131-0.304,0.292-0.304,0.486c0,0.179,0.075,0.324,0.223,0.438
					c0.15,0.114,0.35,0.209,0.604,0.283c0.252,0.075,0.599,0.165,1.042,0.272c0.525,0.128,0.954,0.283,1.288,0.459
					c0.333,0.178,0.585,0.388,0.758,0.632C211.785,335.307,211.871,335.583,211.871,335.892z"/>
				<path id="XMLID_1035_" class="st7" d="M213.603,330.431c-0.237,0-0.438-0.074-0.605-0.219c-0.168-0.143-0.252-0.349-0.252-0.616
					c0-0.238,0.085-0.435,0.257-0.591c0.172-0.155,0.373-0.233,0.6-0.233c0.22,0,0.414,0.07,0.584,0.212
					c0.169,0.141,0.254,0.345,0.254,0.612c0,0.264-0.083,0.467-0.249,0.613C214.027,330.356,213.831,330.431,213.603,330.431z
					 M214.441,332.18v4.898c0,0.339-0.081,0.596-0.242,0.77c-0.161,0.174-0.366,0.26-0.615,0.26c-0.248,0-0.449-0.087-0.605-0.267
					c-0.155-0.177-0.232-0.433-0.232-0.763v-4.849c0-0.335,0.077-0.587,0.232-0.758c0.156-0.169,0.357-0.255,0.605-0.255
					c0.25,0,0.454,0.086,0.615,0.255C214.36,331.643,214.441,331.878,214.441,332.18z"/>
				<path id="XMLID_1032_" class="st7" d="M221.865,332.459v4.925c0,0.561-0.061,1.047-0.181,1.453
					c-0.119,0.403-0.312,0.74-0.577,1.005c-0.265,0.264-0.612,0.462-1.04,0.59c-0.427,0.129-0.961,0.192-1.599,0.192
					c-0.583,0-1.104-0.083-1.564-0.246c-0.459-0.163-0.812-0.375-1.062-0.632c-0.247-0.26-0.372-0.524-0.372-0.798
					c0-0.207,0.07-0.377,0.211-0.506c0.14-0.132,0.311-0.197,0.509-0.197c0.249,0,0.466,0.111,0.652,0.33
					c0.091,0.111,0.185,0.226,0.282,0.339c0.098,0.114,0.206,0.21,0.323,0.291c0.119,0.081,0.261,0.142,0.426,0.181
					c0.166,0.039,0.357,0.058,0.571,0.058c0.438,0,0.779-0.061,1.021-0.183c0.243-0.121,0.413-0.292,0.51-0.513
					c0.097-0.218,0.154-0.452,0.17-0.704c0.017-0.249,0.029-0.653,0.037-1.207c-0.261,0.365-0.562,0.642-0.903,0.832
					c-0.341,0.189-0.748,0.285-1.22,0.285c-0.567,0-1.062-0.146-1.487-0.435c-0.424-0.29-0.75-0.694-0.977-1.217
					c-0.229-0.522-0.342-1.122-0.342-1.806c0-0.51,0.069-0.97,0.208-1.379c0.14-0.41,0.336-0.755,0.593-1.036
					c0.256-0.282,0.552-0.493,0.887-0.637c0.334-0.142,0.703-0.214,1.104-0.214c0.48,0,0.896,0.093,1.249,0.275
					c0.352,0.184,0.679,0.474,0.981,0.867v-0.23c0-0.293,0.071-0.521,0.217-0.684c0.145-0.159,0.332-0.242,0.559-0.242
					c0.326,0,0.544,0.107,0.651,0.32C221.811,331.751,221.865,332.058,221.865,332.459z M216.954,334.608
					c0,0.688,0.149,1.207,0.45,1.558c0.3,0.353,0.688,0.528,1.165,0.528c0.281,0,0.547-0.075,0.797-0.227
					c0.251-0.151,0.455-0.38,0.612-0.683c0.156-0.305,0.236-0.673,0.236-1.107c0-0.692-0.153-1.23-0.457-1.615
					c-0.303-0.385-0.704-0.577-1.201-0.577c-0.484,0-0.872,0.185-1.164,0.554C217.1,333.406,216.954,333.93,216.954,334.608z"/>
				<path id="XMLID_1030_" class="st7" d="M224.558,332.156v0.205c0.298-0.393,0.624-0.683,0.978-0.866
					c0.354-0.184,0.76-0.277,1.219-0.277c0.448,0,0.847,0.099,1.199,0.292c0.351,0.195,0.615,0.471,0.788,0.825
					c0.112,0.208,0.184,0.433,0.217,0.671c0.032,0.241,0.05,0.547,0.05,0.92v3.153c0,0.339-0.078,0.596-0.233,0.77
					c-0.156,0.174-0.357,0.26-0.605,0.26c-0.253,0-0.458-0.087-0.615-0.267c-0.158-0.177-0.235-0.433-0.235-0.763v-2.826
					c0-0.557-0.079-0.984-0.233-1.281c-0.155-0.295-0.465-0.443-0.929-0.443c-0.302,0-0.577,0.09-0.825,0.271
					c-0.248,0.18-0.431,0.427-0.546,0.742c-0.083,0.251-0.124,0.723-0.124,1.415v2.123c0,0.343-0.081,0.603-0.239,0.773
					c-0.16,0.172-0.366,0.256-0.618,0.256c-0.245,0-0.445-0.087-0.602-0.267c-0.157-0.177-0.236-0.433-0.236-0.763v-4.898
					c0-0.322,0.07-0.565,0.212-0.724c0.141-0.159,0.332-0.239,0.577-0.239c0.149,0,0.284,0.036,0.404,0.107
					c0.12,0.07,0.216,0.175,0.288,0.314C224.522,331.781,224.558,331.953,224.558,332.156z"/>
				<path id="XMLID_1027_" class="st7" d="M234.869,335.081h-3.314c0.004,0.384,0.081,0.724,0.232,1.018
					c0.152,0.294,0.352,0.516,0.603,0.664c0.249,0.149,0.526,0.223,0.828,0.223c0.204,0,0.389-0.022,0.556-0.069
					c0.168-0.05,0.33-0.123,0.487-0.225c0.157-0.101,0.301-0.21,0.436-0.327c0.131-0.115,0.303-0.274,0.514-0.472
					c0.087-0.073,0.211-0.111,0.373-0.111c0.174,0,0.315,0.047,0.422,0.144c0.107,0.096,0.161,0.228,0.161,0.403
					c0,0.153-0.06,0.331-0.18,0.536s-0.301,0.401-0.543,0.591c-0.243,0.188-0.546,0.344-0.912,0.468
					c-0.367,0.125-0.788,0.186-1.264,0.186c-1.088,0-1.935-0.31-2.539-0.93c-0.604-0.621-0.907-1.463-0.907-2.527
					c0-0.501,0.075-0.965,0.224-1.394c0.149-0.428,0.366-0.794,0.652-1.102c0.285-0.306,0.637-0.541,1.055-0.705
					c0.418-0.163,0.882-0.245,1.391-0.245c0.663,0,1.229,0.14,1.703,0.419c0.474,0.28,0.83,0.641,1.066,1.083
					c0.234,0.443,0.354,0.895,0.354,1.354c0,0.428-0.122,0.702-0.366,0.829C235.656,335.016,235.312,335.081,234.869,335.081z
					 M231.554,334.119h3.073c-0.042-0.58-0.198-1.015-0.469-1.301c-0.271-0.289-0.627-0.432-1.071-0.432
					c-0.422,0-0.769,0.146-1.04,0.436C231.776,333.116,231.613,333.545,231.554,334.119z"/>
				<path id="XMLID_1024_" class="st7" d="M241.777,337.142v-0.17c-0.227,0.262-0.452,0.474-0.673,0.636
					c-0.221,0.164-0.461,0.289-0.719,0.373c-0.259,0.087-0.541,0.127-0.847,0.127c-0.407,0-0.783-0.084-1.127-0.256
					c-0.346-0.171-0.645-0.418-0.897-0.736c-0.253-0.318-0.444-0.691-0.574-1.124c-0.13-0.43-0.195-0.896-0.195-1.397
					c0-1.058,0.258-1.885,0.776-2.477c0.517-0.591,1.198-0.887,2.042-0.887c0.489,0,0.901,0.084,1.236,0.251
					c0.335,0.166,0.662,0.426,0.98,0.772v-2.502c0-0.348,0.069-0.609,0.209-0.787c0.139-0.178,0.336-0.267,0.593-0.267
					c0.256,0,0.454,0.082,0.593,0.245c0.138,0.164,0.208,0.404,0.208,0.723v7.476c0,0.321-0.073,0.564-0.223,0.725
					s-0.341,0.241-0.578,0.241c-0.231,0-0.423-0.082-0.574-0.25C241.853,337.691,241.777,337.451,241.777,337.142z M238.444,334.651
					c0,0.461,0.07,0.851,0.214,1.173c0.143,0.323,0.339,0.566,0.587,0.729c0.248,0.163,0.519,0.247,0.813,0.247
					c0.298,0,0.57-0.078,0.816-0.234c0.247-0.154,0.442-0.393,0.589-0.713c0.147-0.32,0.221-0.723,0.221-1.202
					c0-0.451-0.073-0.839-0.221-1.166c-0.147-0.322-0.345-0.571-0.595-0.743c-0.251-0.171-0.525-0.257-0.823-0.257
					c-0.31,0-0.587,0.088-0.832,0.262c-0.244,0.178-0.434,0.429-0.568,0.759C238.51,333.836,238.444,334.216,238.444,334.651z"/>
				<path id="XMLID_1021_" class="st7" d="M248.705,329.667v2.588c0.318-0.332,0.643-0.585,0.975-0.76
					c0.331-0.178,0.741-0.264,1.229-0.264c0.562,0,1.056,0.133,1.48,0.4c0.423,0.267,0.753,0.654,0.987,1.16
					c0.234,0.507,0.351,1.109,0.351,1.803c0,0.516-0.065,0.985-0.195,1.414c-0.131,0.428-0.32,0.799-0.568,1.113
					c-0.248,0.314-0.55,0.56-0.903,0.73c-0.354,0.172-0.743,0.256-1.17,0.256c-0.261,0-0.507-0.031-0.736-0.093
					c-0.229-0.061-0.426-0.143-0.587-0.245c-0.161-0.101-0.298-0.204-0.412-0.312c-0.114-0.107-0.265-0.268-0.45-0.485v0.17
					c0,0.316-0.078,0.557-0.23,0.723c-0.152,0.163-0.347,0.243-0.584,0.243c-0.24,0-0.431-0.08-0.574-0.243
					c-0.143-0.166-0.215-0.406-0.215-0.723v-7.401c0-0.344,0.07-0.603,0.208-0.779c0.14-0.177,0.333-0.263,0.581-0.263
					c0.261,0,0.462,0.082,0.603,0.25C248.634,329.117,248.705,329.354,248.705,329.667z M248.785,334.702
					c0,0.674,0.154,1.191,0.462,1.554c0.308,0.363,0.712,0.545,1.213,0.545c0.426,0,0.794-0.186,1.102-0.557
					c0.308-0.371,0.462-0.9,0.462-1.593c0-0.446-0.063-0.832-0.192-1.153c-0.128-0.324-0.31-0.573-0.546-0.751
					c-0.236-0.174-0.512-0.262-0.826-0.262c-0.323,0-0.61,0.088-0.863,0.262c-0.252,0.178-0.451,0.432-0.596,0.764
					C248.858,333.845,248.785,334.241,248.785,334.702z"/>
				<path id="XMLID_1019_" class="st7" d="M255.924,338.321l0.155-0.379l-2.086-5.253c-0.127-0.301-0.192-0.521-0.192-0.657
					c0-0.146,0.038-0.28,0.113-0.404c0.074-0.125,0.175-0.224,0.306-0.298c0.131-0.074,0.267-0.112,0.406-0.112
					c0.245,0,0.428,0.078,0.553,0.233c0.124,0.156,0.234,0.377,0.329,0.667l1.435,4.172l1.359-3.88
					c0.107-0.314,0.205-0.56,0.292-0.739c0.087-0.177,0.178-0.298,0.276-0.358c0.097-0.064,0.235-0.095,0.413-0.095
					c0.129,0,0.251,0.036,0.37,0.104c0.118,0.068,0.209,0.159,0.273,0.275c0.063,0.115,0.096,0.237,0.096,0.366
					c-0.017,0.078-0.044,0.189-0.081,0.336c-0.038,0.144-0.083,0.293-0.136,0.439l-2.21,5.785c-0.192,0.51-0.377,0.908-0.559,1.198
					c-0.183,0.29-0.423,0.514-0.724,0.668c-0.3,0.155-0.705,0.233-1.214,0.233c-0.496,0-0.869-0.054-1.116-0.16
					c-0.249-0.109-0.374-0.306-0.374-0.591c0-0.194,0.058-0.345,0.177-0.451c0.118-0.104,0.294-0.16,0.525-0.16
					c0.091,0,0.18,0.015,0.268,0.039c0.107,0.025,0.2,0.038,0.279,0.038c0.194,0,0.348-0.029,0.46-0.088
					c0.111-0.058,0.211-0.156,0.301-0.301C255.706,338.807,255.808,338.597,255.924,338.321z"/>
			</g>
			<g id="XMLID_996_">
				<path id="XMLID_1017_" class="st7" d="M280.476,331.365h0.404v-0.508c0-0.534,0.064-0.954,0.199-1.267
					c0.133-0.312,0.363-0.54,0.686-0.684c0.32-0.141,0.759-0.214,1.316-0.214c0.993,0,1.486,0.24,1.486,0.728
					c0,0.157-0.052,0.292-0.157,0.403c-0.1,0.111-0.224,0.167-0.365,0.167c-0.064,0-0.181-0.012-0.344-0.038
					c-0.155-0.021-0.297-0.037-0.407-0.037c-0.306,0-0.501,0.093-0.592,0.272c-0.082,0.181-0.127,0.436-0.127,0.774v0.403h0.413
					c0.648,0,0.969,0.193,0.969,0.586c0,0.272-0.085,0.45-0.258,0.525c-0.171,0.074-0.408,0.112-0.711,0.112h-0.413v4.49
					c0,0.333-0.08,0.589-0.243,0.763c-0.157,0.18-0.36,0.266-0.615,0.266c-0.24,0-0.439-0.086-0.6-0.266
					c-0.159-0.174-0.237-0.43-0.237-0.763v-4.49h-0.467c-0.254,0-0.446-0.056-0.584-0.172c-0.138-0.111-0.206-0.261-0.206-0.442
					C279.623,331.566,279.907,331.365,280.476,331.365"/>
				<path id="XMLID_1016_" class="st7" d="M286.024,335.662v1.417c0,0.342-0.086,0.602-0.245,0.771
					c-0.16,0.174-0.365,0.257-0.611,0.257c-0.251,0-0.45-0.085-0.607-0.261c-0.154-0.173-0.235-0.43-0.235-0.768v-4.721
					c0-0.761,0.273-1.143,0.823-1.143c0.284,0,0.486,0.089,0.611,0.267c0.125,0.179,0.192,0.44,0.207,0.789
					c0.2-0.349,0.408-0.61,0.62-0.789c0.217-0.179,0.498-0.267,0.855-0.267c0.357,0,0.701,0.089,1.036,0.267
					c0.337,0.179,0.505,0.416,0.505,0.708c0,0.207-0.072,0.379-0.214,0.512c-0.143,0.136-0.297,0.203-0.461,0.203
					c-0.066,0-0.217-0.041-0.453-0.117c-0.239-0.074-0.45-0.113-0.63-0.113c-0.248,0-0.451,0.067-0.608,0.195
					c-0.158,0.134-0.281,0.324-0.368,0.579c-0.085,0.259-0.145,0.566-0.179,0.917C286.038,334.72,286.024,335.154,286.024,335.662"
					/>
				<path id="XMLID_1013_" class="st7" d="M293.815,335.079h-3.315c0.005,0.384,0.08,0.726,0.231,1.019
					c0.153,0.292,0.353,0.514,0.604,0.665c0.252,0.147,0.525,0.222,0.83,0.222c0.203,0,0.388-0.021,0.555-0.073
					c0.167-0.046,0.33-0.121,0.487-0.223c0.158-0.101,0.302-0.207,0.434-0.327c0.134-0.113,0.306-0.271,0.517-0.47
					c0.089-0.072,0.213-0.114,0.372-0.114c0.175,0,0.314,0.049,0.424,0.145c0.109,0.097,0.159,0.23,0.159,0.403
					c0,0.155-0.059,0.333-0.174,0.536c-0.124,0.207-0.305,0.402-0.546,0.593c-0.246,0.186-0.549,0.344-0.915,0.467
					c-0.364,0.124-0.787,0.186-1.263,0.186c-1.091,0-1.938-0.309-2.54-0.928c-0.604-0.623-0.908-1.467-0.908-2.529
					c0-0.502,0.076-0.966,0.227-1.395c0.146-0.432,0.364-0.797,0.653-1.103c0.283-0.308,0.634-0.541,1.052-0.706
					c0.417-0.163,0.882-0.244,1.392-0.244c0.66,0,1.23,0.141,1.703,0.423c0.475,0.276,0.834,0.638,1.065,1.082
					c0.237,0.444,0.354,0.893,0.354,1.355c0,0.423-0.124,0.699-0.367,0.826C294.601,335.015,294.258,335.079,293.815,335.079
					 M290.499,334.115h3.073c-0.041-0.578-0.196-1.012-0.468-1.298c-0.273-0.289-0.627-0.432-1.072-0.432
					c-0.422,0-0.769,0.143-1.039,0.436C290.721,333.114,290.556,333.544,290.499,334.115"/>
				<path id="XMLID_1010_" class="st7" d="M300.865,335.079h-3.314c0.003,0.384,0.081,0.726,0.231,1.019
					c0.15,0.292,0.352,0.514,0.602,0.665c0.251,0.147,0.526,0.222,0.831,0.222c0.2,0,0.388-0.021,0.552-0.073
					c0.171-0.046,0.33-0.121,0.489-0.223c0.159-0.101,0.302-0.207,0.435-0.327c0.13-0.113,0.303-0.271,0.516-0.47
					c0.088-0.072,0.213-0.114,0.372-0.114c0.175,0,0.315,0.049,0.426,0.145c0.105,0.097,0.156,0.23,0.156,0.403
					c0,0.155-0.057,0.333-0.18,0.536c-0.116,0.207-0.297,0.402-0.542,0.593c-0.241,0.186-0.549,0.344-0.914,0.467
					c-0.361,0.124-0.788,0.186-1.262,0.186c-1.091,0-1.936-0.309-2.541-0.928c-0.604-0.623-0.908-1.467-0.908-2.529
					c0-0.502,0.076-0.966,0.229-1.395c0.146-0.432,0.363-0.797,0.65-1.103c0.283-0.308,0.635-0.541,1.055-0.706
					c0.418-0.163,0.882-0.244,1.392-0.244c0.659,0,1.227,0.141,1.708,0.423c0.47,0.276,0.827,0.638,1.059,1.082
					c0.236,0.444,0.357,0.893,0.357,1.355c0,0.423-0.125,0.699-0.368,0.826C301.65,335.015,301.307,335.079,300.865,335.079
					 M297.551,334.115h3.072c-0.042-0.578-0.2-1.012-0.468-1.298c-0.275-0.289-0.629-0.432-1.073-0.432
					c-0.422,0-0.768,0.143-1.042,0.436C297.771,333.114,297.606,333.544,297.551,334.115"/>
				<path id="XMLID_1007_" class="st7" d="M304.577,332.169v0.204c0.318-0.395,0.65-0.683,0.997-0.866
					c0.34-0.186,0.731-0.279,1.165-0.279c0.52,0,1.003,0.136,1.442,0.404c0.44,0.27,0.783,0.662,1.038,1.18
					c0.257,0.521,0.384,1.131,0.384,1.839c0,0.521-0.074,1.002-0.22,1.439c-0.146,0.438-0.352,0.801-0.607,1.098
					c-0.256,0.294-0.56,0.523-0.907,0.685c-0.354,0.157-0.727,0.236-1.13,0.236c-0.482,0-0.892-0.096-1.219-0.291
					c-0.329-0.191-0.643-0.479-0.943-0.853v2.544c0,0.742-0.271,1.118-0.812,1.118c-0.321,0-0.528-0.097-0.634-0.289
					c-0.1-0.194-0.154-0.473-0.154-0.843v-7.317c0-0.322,0.07-0.56,0.21-0.723c0.141-0.157,0.334-0.238,0.578-0.238
					c0.24,0,0.435,0.081,0.586,0.245C304.504,331.625,304.577,331.859,304.577,332.169 M307.902,334.631
					c0-0.447-0.07-0.833-0.206-1.152c-0.136-0.323-0.326-0.567-0.565-0.737c-0.241-0.173-0.512-0.26-0.807-0.26
					c-0.466,0-0.861,0.188-1.182,0.553c-0.321,0.369-0.484,0.911-0.484,1.628c0,0.672,0.162,1.199,0.482,1.573
					c0.318,0.375,0.709,0.562,1.184,0.562c0.28,0,0.544-0.083,0.783-0.244c0.242-0.164,0.435-0.409,0.577-0.734
					C307.829,335.489,307.902,335.093,307.902,334.631"/>
				<path id="XMLID_1004_" class="st7" d="M311.31,330.425c-0.236,0-0.438-0.073-0.604-0.218c-0.168-0.147-0.252-0.348-0.252-0.612
					c0-0.241,0.085-0.438,0.259-0.596c0.172-0.152,0.369-0.231,0.597-0.231c0.223,0,0.416,0.069,0.585,0.208
					c0.169,0.143,0.255,0.351,0.255,0.619c0,0.261-0.083,0.465-0.247,0.611C311.737,330.352,311.541,330.425,311.31,330.425
					 M312.15,332.175v4.905c0,0.336-0.08,0.593-0.241,0.766c-0.164,0.176-0.367,0.261-0.615,0.261c-0.249,0-0.448-0.086-0.606-0.266
					c-0.153-0.18-0.232-0.434-0.232-0.761v-4.855c0-0.333,0.079-0.586,0.232-0.754c0.158-0.174,0.357-0.257,0.606-0.257
					c0.248,0,0.451,0.083,0.615,0.257C312.07,331.639,312.15,331.878,312.15,332.175"/>
				<path id="XMLID_1003_" class="st7" d="M317.614,337.335l-1.492-2.462l-0.921,0.869v1.35c0,0.325-0.087,0.576-0.259,0.75
					c-0.168,0.18-0.37,0.266-0.593,0.266c-0.261,0-0.467-0.085-0.614-0.261c-0.15-0.173-0.226-0.43-0.226-0.768v-7.231
					c0-0.376,0.075-0.661,0.217-0.858c0.146-0.199,0.355-0.296,0.623-0.296c0.262,0,0.465,0.09,0.621,0.27
					c0.151,0.176,0.23,0.44,0.23,0.786v4.112l1.905-2.001c0.237-0.247,0.415-0.419,0.541-0.509c0.123-0.092,0.274-0.137,0.45-0.137
					c0.214,0,0.389,0.068,0.534,0.202c0.138,0.134,0.208,0.305,0.208,0.506c0,0.248-0.231,0.581-0.688,0.994l-0.9,0.826l1.738,2.733
					c0.126,0.204,0.222,0.354,0.276,0.461c0.055,0.104,0.086,0.209,0.086,0.302c0,0.271-0.075,0.479-0.224,0.637
					c-0.146,0.156-0.343,0.231-0.578,0.231c-0.208,0-0.369-0.052-0.479-0.168C317.958,337.829,317.802,337.625,317.614,337.335"/>
				<path id="XMLID_1002_" class="st7" d="M321.296,338.107c-0.255,0-0.475-0.081-0.663-0.249c-0.185-0.162-0.279-0.395-0.279-0.695
					c0-0.252,0.09-0.47,0.268-0.65c0.18-0.183,0.397-0.273,0.659-0.273c0.26,0,0.48,0.091,0.669,0.268
					c0.183,0.181,0.275,0.401,0.275,0.655c0,0.296-0.093,0.528-0.275,0.693C321.761,338.026,321.544,338.107,321.296,338.107"/>
				<path id="XMLID_1001_" class="st7" d="M329.727,336.009c0,0.21-0.063,0.438-0.19,0.677c-0.125,0.242-0.319,0.469-0.577,0.687
					c-0.259,0.217-0.583,0.393-0.978,0.524c-0.393,0.132-0.837,0.2-1.327,0.2c-1.05,0-1.868-0.307-2.456-0.915
					c-0.585-0.611-0.879-1.431-0.879-2.458c0-0.697,0.133-1.311,0.403-1.846c0.266-0.532,0.657-0.946,1.164-1.239
					c0.51-0.292,1.122-0.438,1.827-0.438c0.439,0,0.842,0.065,1.21,0.193c0.366,0.127,0.675,0.295,0.933,0.497
					c0.252,0.204,0.447,0.42,0.58,0.648c0.135,0.23,0.2,0.444,0.2,0.644c0,0.201-0.073,0.375-0.223,0.516
					c-0.154,0.141-0.338,0.211-0.548,0.211c-0.144,0-0.261-0.037-0.353-0.108c-0.096-0.072-0.199-0.19-0.315-0.354
					c-0.207-0.311-0.421-0.55-0.649-0.706c-0.226-0.158-0.512-0.236-0.859-0.236c-0.498,0-0.904,0.195-1.212,0.587
					c-0.305,0.39-0.46,0.928-0.46,1.604c0,0.319,0.041,0.614,0.121,0.882c0.076,0.266,0.189,0.494,0.339,0.682
					c0.151,0.188,0.331,0.33,0.541,0.428c0.212,0.101,0.444,0.148,0.695,0.148c0.34,0,0.631-0.079,0.873-0.237
					c0.246-0.157,0.46-0.397,0.646-0.72c0.102-0.189,0.214-0.339,0.332-0.446c0.119-0.106,0.268-0.162,0.441-0.162
					c0.207,0,0.379,0.079,0.515,0.235C329.658,335.665,329.727,335.833,329.727,336.009"/>
				<path id="XMLID_998_" class="st7" d="M337.041,334.663c0,0.503-0.079,0.97-0.231,1.398c-0.162,0.426-0.388,0.792-0.688,1.097
					c-0.297,0.306-0.654,0.541-1.065,0.705c-0.418,0.163-0.882,0.245-1.397,0.245c-0.514,0-0.977-0.082-1.388-0.25
					c-0.407-0.162-0.764-0.4-1.062-0.707c-0.3-0.311-0.528-0.675-0.688-1.096c-0.148-0.42-0.228-0.885-0.228-1.393
					c0-0.515,0.081-0.984,0.234-1.409c0.156-0.43,0.383-0.795,0.678-1.095c0.294-0.301,0.649-0.534,1.065-0.699
					c0.421-0.164,0.883-0.245,1.388-0.245c0.514,0,0.978,0.081,1.397,0.249c0.417,0.164,0.773,0.402,1.073,0.707
					c0.3,0.31,0.525,0.672,0.681,1.092C336.963,333.688,337.041,334.15,337.041,334.663 M335.34,334.663
					c0-0.691-0.154-1.228-0.456-1.613c-0.304-0.389-0.711-0.581-1.225-0.581c-0.333,0-0.625,0.087-0.878,0.258
					c-0.252,0.172-0.445,0.425-0.582,0.761c-0.137,0.337-0.206,0.728-0.206,1.176c0,0.443,0.067,0.829,0.202,1.159
					c0.136,0.333,0.328,0.585,0.578,0.762c0.254,0.175,0.547,0.266,0.886,0.266c0.514,0,0.921-0.194,1.225-0.584
					C335.186,335.879,335.34,335.343,335.34,334.663"/>
				<path id="XMLID_997_" class="st7" d="M343.507,334.787v2.254c0,0.358-0.078,0.621-0.241,0.801
					c-0.164,0.18-0.373,0.267-0.639,0.267c-0.257,0-0.468-0.087-0.622-0.267c-0.162-0.18-0.244-0.443-0.244-0.801v-2.701
					c0-0.426-0.013-0.759-0.04-0.996c-0.03-0.231-0.11-0.429-0.237-0.576c-0.129-0.153-0.333-0.23-0.608-0.23
					c-0.556,0-0.92,0.19-1.096,0.575c-0.174,0.378-0.265,0.924-0.265,1.639v2.29c0,0.351-0.08,0.618-0.237,0.8
					c-0.163,0.177-0.371,0.268-0.63,0.268c-0.26,0-0.469-0.091-0.634-0.268c-0.163-0.182-0.244-0.449-0.244-0.8v-4.85
					c0-0.318,0.072-0.562,0.219-0.727c0.15-0.168,0.344-0.249,0.581-0.249c0.233,0,0.425,0.081,0.583,0.231
					c0.153,0.157,0.232,0.371,0.232,0.645v0.159c0.296-0.349,0.611-0.607,0.944-0.771c0.337-0.171,0.707-0.252,1.119-0.252
					c0.426,0,0.791,0.086,1.097,0.255c0.307,0.169,0.558,0.428,0.76,0.768c0.286-0.344,0.593-0.602,0.92-0.771
					c0.328-0.168,0.688-0.252,1.086-0.252c0.462,0,0.864,0.094,1.198,0.273c0.335,0.182,0.585,0.444,0.751,0.782
					c0.145,0.31,0.215,0.79,0.215,1.448v3.31c0,0.358-0.078,0.621-0.239,0.801c-0.16,0.18-0.375,0.267-0.64,0.267
					c-0.259,0-0.467-0.091-0.631-0.268c-0.164-0.182-0.246-0.449-0.246-0.8v-2.852c0-0.365-0.016-0.656-0.045-0.874
					c-0.03-0.221-0.115-0.405-0.25-0.554c-0.139-0.147-0.347-0.225-0.623-0.225c-0.223,0-0.435,0.069-0.637,0.201
					c-0.201,0.129-0.357,0.312-0.471,0.53C343.572,333.554,343.507,334.062,343.507,334.787"/>
			</g>
			<g id="XMLID_982_">
				<path id="XMLID_995_" class="st7" d="M264.614,334.252c-0.002-0.002-0.002-0.005-0.002-0.012
					C264.612,334.247,264.612,334.25,264.614,334.252z"/>
				<path id="XMLID_994_" class="st7" d="M264.699,334.794c0.002,0,0.002,0,0.003,0c-0.033-0.155-0.058-0.308-0.078-0.459
					C264.644,334.489,264.668,334.641,264.699,334.794z"/>
				<path id="XMLID_993_" class="st7" d="M265.26,336.368c-0.003-0.008-0.006-0.014-0.011-0.022
					C265.254,336.354,265.257,336.36,265.26,336.368z"/>
				<path id="XMLID_992_" class="st7" d="M265.207,336.263c-0.016-0.029-0.029-0.06-0.043-0.088
					C265.178,336.207,265.192,336.234,265.207,336.263z"/>
				<path id="XMLID_991_" class="st7" d="M264.857,335.4c0.083,0.262,0.183,0.516,0.299,0.757c-0.118-0.247-0.215-0.501-0.296-0.757
					H264.857z"/>
				<path id="XMLID_990_" class="st7" d="M271.174,327.758c0.328,0,0.57,0.026,0.847,0.073l0.079-0.5c0,0-0.766-0.233-1.772-0.152
					l-0.079-0.271c0.312-0.066,0.547-0.344,0.547-0.676c0-0.382-0.31-0.689-0.691-0.689c-0.381,0-0.69,0.308-0.69,0.689
					c0,0.332,0.234,0.609,0.546,0.676l0.088,0.302c-1.068,0.147-1.918,0.564-1.918,0.564l0.15,0.462
					c0.647-0.216,1.207-0.347,1.715-0.401C270.494,327.781,270.869,327.758,271.174,327.758z"/>
				<path id="XMLID_989_" class="st7" d="M265.248,330.279l0.003-0.004c0.026-0.032,0.05-0.064,0.074-0.094l-0.205-0.147
					l-0.318-0.234c-0.018,0.024-0.521,0.486-0.916,1.339c-0.017-0.026-0.037-0.053-0.06-0.077c-0.119-0.131-0.284-0.195-0.495-0.192
					c-0.002,0-0.006,0-0.01,0c-0.13,0-0.22-0.044-0.278-0.098c0.058-0.072,0.093-0.166,0.093-0.27c0-0.24-0.196-0.436-0.438-0.436
					c-0.241,0-0.438,0.195-0.438,0.436c0,0.242,0.196,0.438,0.438,0.438c0.038,0,0.074-0.005,0.109-0.014
					c0.107,0.121,0.278,0.225,0.527,0.219c0.129-0.001,0.223,0.032,0.286,0.102c0.073,0.079,0.097,0.194,0.105,0.28
					c-0.001,0.001-0.001,0.002-0.002,0.002c-0.284,0.778-0.204,1.746-0.204,1.746l0.691,0.027c0.014-0.353,0.065-0.969,0.243-1.458
					C264.799,330.896,265.231,330.305,265.248,330.279z"/>
				<path id="XMLID_988_" class="st7" d="M277.186,328.336c-0.24,0-0.436,0.194-0.436,0.436c0,0.037,0.007,0.074,0.017,0.109
					c-0.121,0.107-0.226,0.278-0.222,0.528c0.002,0.13-0.031,0.224-0.101,0.286c-0.055,0.048-0.125,0.076-0.193,0.092
					c-0.515-0.722-1.147-1.16-1.147-1.16l-0.496,0.531c0.375,0.341,0.758,0.768,1.129,1.301c0.258,0.368,0.523,0.844,0.742,1.316
					l0.671-0.316c0,0-0.306-0.756-0.736-1.434c0.074-0.025,0.15-0.066,0.217-0.125c0.131-0.118,0.195-0.286,0.19-0.496
					c0-0.135,0.045-0.228,0.098-0.289c0.074,0.058,0.169,0.095,0.268,0.095c0.244,0,0.439-0.197,0.439-0.439
					C277.624,328.53,277.43,328.336,277.186,328.336z"/>
				<path id="XMLID_987_" class="st7" d="M275.45,334.351c-0.921,0.447-2.437,1.04-4.432,1.319
					c-0.784,0.108-1.542,0.148-2.242,0.148c-0.909,0-1.712-0.067-2.329-0.146c-0.703-0.089-1.252-0.197-1.589-0.273
					c0.081,0.256,0.179,0.51,0.296,0.757c0.002,0.007,0.005,0.014,0.008,0.019c0.015,0.028,0.028,0.059,0.043,0.088
					c0.013,0.028,0.028,0.055,0.042,0.082c0.005,0.009,0.008,0.015,0.011,0.022c0.198,0.372,0.436,0.714,0.707,1.012
					c0.941,1.027,1.9,1.192,1.909,1.194l0.015,0.001l0.013,0.004c0.009,0.005,0.86,0.279,2.151,0.279
					c1.272,0,2.519-0.258,3.709-0.764c0.881-0.451,1.714-1.135,2.126-1.745c0.32-0.472,0.55-0.976,0.686-1.499
					c0.073-0.278,0.13-0.724,0.098-1.193C276.414,333.833,276.004,334.081,275.45,334.351z"/>
				<path id="XMLID_983_" class="st7" d="M265.544,330.498c-0.027,0.04-0.427,0.605-0.742,1.472
					c-0.236,0.65-0.226,1.598-0.226,1.609v0.002c0,0.222,0.012,0.441,0.037,0.659c0,0.007,0,0.01,0.002,0.012
					c0.002,0.029,0.007,0.055,0.009,0.084c0.021,0.151,0.045,0.304,0.078,0.459c0.458,0.116,3.188,0.754,6.24,0.328
					c1.914-0.268,3.365-0.832,4.247-1.26c0.734-0.355,1.204-0.677,1.387-0.81c-0.182-0.671-0.681-1.725-1.14-2.382
					c-1.311-1.873-2.724-2.354-3.448-2.473c-0.277-0.045-0.499-0.071-0.813-0.071c-0.292,0-0.655,0.023-1.139,0.074
					c-0.486,0.051-1.028,0.179-1.655,0.389c-0.881,0.295-1.678,0.759-2.305,1.34l-0.021,0.019
					C265.96,330.035,265.767,330.215,265.544,330.498z M273.563,330.062c0.628,0,1.14,0.511,1.14,1.14c0,0.628-0.512,1.14-1.14,1.14
					c-0.629,0-1.14-0.512-1.14-1.14C272.423,330.573,272.934,330.062,273.563,330.062z M268.177,330.016
					c1.017,0,1.841,0.824,1.841,1.843c0,1.016-0.824,1.84-1.841,1.84c-1.017,0-1.841-0.824-1.841-1.84
					C266.335,330.84,267.16,330.016,268.177,330.016z"/>
			</g>
		</g>
	</g>
</g>
</svg>
