<?xml version="1.0" standalone="no"?>
<!DOCTYPE svg PUBLIC "-//W3C//DTD SVG 20010904//EN"
 "http://www.w3.org/TR/2001/REC-SVG-20010904/DTD/svg10.dtd">
<svg version="1.0" xmlns="http://www.w3.org/2000/svg"
 width="500.000000pt" height="500.000000pt" viewBox="0 0 500.000000 500.000000"
 preserveAspectRatio="xMidYMid meet">
<metadata>
Created by potrace 1.11, written by Peter Selinger 2001-2013
</metadata>
<g transform="translate(0.000000,500.000000) scale(0.100000,-0.100000)"
fill="#000000" stroke="none">
<path d="M3381 4102 c-8 -16 -6 -26 10 -46 13 -17 23 -47 26 -78 4 -44 12 -62
54 -115 28 -35 53 -63 56 -63 9 0 152 115 157 126 6 14 -25 84 -37 84 -4 0 -6
4 -3 9 3 5 -1 14 -9 21 -8 7 -15 18 -15 25 0 7 -6 18 -14 24 -11 9 -24 4 -62
-25 -32 -25 -49 -33 -52 -24 -8 22 -56 68 -79 75 -16 4 -25 0 -32 -13z"/>
<path d="M4520 4105 c-7 -8 -9 -26 -5 -44 4 -20 0 -45 -14 -77 -19 -42 -20
-53 -10 -118 7 -39 17 -76 23 -83 8 -8 33 -7 102 7 51 9 96 20 100 23 10 6 10
124 1 134 -4 3 -2 12 3 19 8 8 6 16 -4 27 -12 11 -25 13 -58 6 -65 -12 -66
-12 -66 25 0 60 -46 112 -72 81z"/>
<path d="M1263 3944 c-76 -13 -125 -37 -248 -124 -81 -57 -123 -72 -219 -76
-49 -2 -84 -10 -115 -27 -119 -61 -229 -279 -317 -627 -19 -75 -75 -369 -89
-465 -9 -66 -18 -127 -20 -135 -2 -8 -6 -44 -10 -80 -3 -36 -8 -76 -10 -90 -2
-14 -7 -54 -10 -90 -4 -36 -8 -76 -10 -90 -15 -125 -22 -475 -11 -555 3 -22 8
-65 12 -95 3 -30 8 -58 10 -61 2 -3 6 -20 9 -37 14 -80 72 -210 118 -266 l24
-30 -74 -108 c-40 -59 -76 -114 -79 -123 -5 -13 19 -15 203 -15 l209 0 17 36
c17 35 19 35 60 29 72 -11 78 -14 73 -41 l-5 -24 740 0 c406 0 739 4 739 8 0
12 -53 165 -89 256 l-31 77 21 72 c12 40 24 75 28 79 3 3 50 -15 104 -42 236
-115 402 -136 467 -58 28 34 75 133 99 210 41 135 82 398 62 398 -6 0 3 21 19
47 17 26 30 52 30 57 0 6 21 19 46 30 56 23 82 57 66 89 -6 12 -13 38 -16 57
-8 61 -18 95 -33 112 -8 9 -13 22 -12 30 4 30 -2 48 -23 69 -19 17 -31 20 -74
16 l-50 -5 -11 50 -10 49 66 -2 c76 -3 206 -29 301 -60 65 -22 201 -89 379
-188 105 -59 125 -65 153 -50 27 14 37 47 45 147 19 247 -1 556 -53 811 -20
98 -36 121 -83 121 -41 0 -76 -17 -195 -94 -203 -133 -394 -226 -521 -255 -27
-6 -121 -13 -207 -16 -87 -2 -167 -9 -178 -15 -31 -17 -42 -47 -45 -126 -6
-128 37 -256 88 -262 22 -3 27 -10 32 -40 14 -88 16 -86 -31 -42 -53 48 -91
61 -111 34 -17 -23 -10 -46 37 -115 51 -75 84 -142 104 -211 17 -61 21 -148 7
-164 -5 -5 -14 -27 -21 -49 -18 -56 -68 -164 -92 -198 -17 -24 -24 -27 -56
-21 -21 4 -79 27 -130 51 l-93 44 7 132 c12 216 6 731 -10 902 -2 17 -6 62
-10 100 -30 313 -105 570 -214 735 -31 48 -122 145 -163 175 -93 68 -248 126
-402 150 -70 11 -123 11 -194 -1z"/>
<path d="M4405 3935 c-5 -2 -23 -6 -38 -9 -21 -5 -27 -11 -23 -24 3 -9 8 -33
11 -52 18 -113 16 -111 95 -95 8 2 21 4 28 4 13 1 12 37 -2 104 -3 15 -8 38
-11 52 -5 24 -27 31 -60 20z"/>
<path d="M3354 3889 c-22 -17 -41 -32 -43 -34 -3 -4 32 -56 61 -90 9 -11 23
-29 31 -39 14 -19 15 -18 55 10 23 16 44 35 47 42 5 12 -91 142 -105 142 -4 0
-25 -14 -46 -31z"/>
<path d="M3925 3850 c-101 -22 -149 -122 -104 -216 59 -123 244 -103 280 30
20 74 -30 167 -99 182 -15 3 -31 7 -37 8 -5 1 -23 0 -40 -4z"/>
<path d="M4679 3140 c-52 -27 -84 -95 -74 -156 9 -59 69 -123 118 -126 80 -3
125 16 158 68 82 134 -63 287 -202 214z"/>
<path d="M4163 2624 c-52 -31 -77 -81 -71 -144 6 -57 30 -93 81 -119 72 -36
157 -11 196 59 76 136 -73 284 -206 204z"/>
<path d="M4595 2264 c-9 -10 -13 -24 -9 -39 5 -22 -25 -97 -45 -110 -6 -3 -7
-13 -4 -21 5 -15 9 -53 12 -123 l1 -33 103 7 c56 3 105 10 110 14 4 4 9 37 11
74 2 36 7 70 10 75 3 6 3 18 0 27 -5 13 -18 16 -58 15 -73 -3 -73 -3 -68 30 5
35 -13 86 -34 94 -7 3 -20 -2 -29 -10z"/>
<path d="M4412 2102 c-15 -5 -5 -163 12 -174 11 -7 96 0 105 8 5 5 2 88 -4
120 -2 10 -4 27 -4 37 -1 15 -9 18 -49 16 -26 -1 -53 -4 -60 -7z"/>
<path d="M4114 1760 c-111 -24 -156 -164 -80 -248 67 -75 184 -66 243 18 8 11
16 41 19 67 11 102 -81 184 -182 163z"/>
<path d="M3664 1455 c-4 -9 -1 -28 6 -44 7 -19 9 -49 5 -83 -6 -47 -3 -61 26
-123 18 -39 34 -72 36 -74 2 -2 15 2 30 9 16 8 30 14 33 15 20 5 119 56 124
64 4 6 -1 36 -9 68 -9 32 -18 67 -19 77 -5 37 -31 42 -81 18 -25 -12 -47 -22
-50 -22 -2 0 -10 18 -16 41 -18 57 -71 91 -85 54z"/>
<path d="M3593 1255 c-29 -13 -53 -26 -53 -28 0 -15 72 -157 80 -157 16 0 100
44 100 52 0 8 -70 158 -74 158 0 0 -25 -11 -53 -25z"/>
</g>
</svg>
